<svg width="1200" height="800" xmlns="http://www.w3.org/2000/svg"><defs><style>
			.node { fill: #ffffff; stroke: #333333; stroke-width: 2; }
			.edge { stroke: #666666; stroke-width: 1; }
			.label { font-family: Arial, sans-serif; font-size: 12px; text-anchor: middle; }
		</style></defs><rect x="549.864499451946" y="344.02520429310687" 
				width="100" height="50" 
				class="node" rx="5"/><text x="599.864499451946" y="374.02520429310687" class="label">jest.config.js</text><rect x="240.68469054993727" y="559.2125408162227" 
				width="100" height="50" 
				class="node" rx="5"/><text x="290.6846905499373" y="589.2125408162227" class="label">TestPathPatterns.ts</text><rect x="748.6856659469859" y="304.15192023833026" 
				width="100" height="50" 
				class="node" rx="5"/><text x="798.6856659469859" y="334.15192023833026" class="label">TestPathPatterns.test.ts</text><rect x="265.20574750778025" y="220.85462531144105" 
				width="100" height="50" 
				class="node" rx="5"/><text x="315.20574750778025" y="250.85462531144105" class="label">analysis.ts</text><rect x="980.3948974307996" y="346.23581024778446" 
				width="100" height="50" 
				class="node" rx="5"/><text x="1030.3948974307996" y="376.23581024778446" class="label">namespace-analyzer.ts</text><rect x="446.22576943852266" y="558.5877982281862" 
				width="100" height="50" 
				class="node" rx="5"/><text x="496.22576943852266" y="588.5877982281862" class="label">ContextDocumentGenerator.ts</text><rect x="160.92556198731032" y="615.2136248956049" 
				width="100" height="50" 
				class="node" rx="5"/><text x="210.92556198731032" y="645.2136248956049" class="label">MarkdownDependencyExtractor.ts</text><rect x="349.5491867627633" y="658.5590083337598" 
				width="100" height="50" 
				class="node" rx="5"/><text x="399.5491867627633" y="688.5590083337598" class="label">QueryBridge.ts</text><rect x="743.6493182455341" y="191.8483170468119" 
				width="100" height="50" 
				class="node" rx="5"/><text x="793.6493182455341" y="221.8483170468119" class="label">QueryEngine.ts</text><rect x="677.9094051565822" y="445.2262588790868" 
				width="100" height="50" 
				class="node" rx="5"/><text x="727.9094051565822" y="475.2262588790868" class="label">QueryResultMap.ts</text><rect x="1075.5830278870694" y="299.35341131230456" 
				width="100" height="50" 
				class="node" rx="5"/><text x="1125.5830278870694" y="329.35341131230456" class="label">SymbolExtractor.ts</text><rect x="16.615066320258578" y="393.4599418648349" 
				width="100" height="50" 
				class="node" rx="5"/><text x="66.61506632025858" y="423.4599418648349" class="label">TreeSitterQueryEngine.ts</text><rect x="338.5132880038848" y="623.0484069895983" 
				width="100" height="50" 
				class="node" rx="5"/><text x="388.5132880038848" y="653.0484069895983" class="label">markdown-types.ts</text><rect x="977.0443692002705" y="660.9171595849845" 
				width="100" height="50" 
				class="node" rx="5"/><text x="1027.0443692002705" y="690.9171595849845" class="label">symbol-types.ts</text><rect x="952.0344759447797" y="534.8328938787924" 
				width="100" height="50" 
				class="node" rx="5"/><text x="1002.0344759447797" y="564.8328938787924" class="label">types.ts</text><rect x="487.71276429066415" y="678.7824155062694" 
				width="100" height="50" 
				class="node" rx="5"/><text x="537.7127642906642" y="708.7824155062694" class="label">GraphDatabase.ts</text><rect x="127.75564950402773" y="495.2912502721365" 
				width="100" height="50" 
				class="node" rx="5"/><text x="177.75564950402773" y="525.2912502721365" class="label">GraphQueryEngine.ts</text><rect x="61.494528150845156" y="82.01037467733931" 
				width="100" height="50" 
				class="node" rx="5"/><text x="111.49452815084516" y="112.01037467733931" class="label">GraphStorage.ts</text><rect x="461.9804723147474" y="113.49237678450217" 
				width="100" height="50" 
				class="node" rx="5"/><text x="511.9804723147474" y="143.49237678450217" class="label">CircularDependencyDetector.ts</text><rect x="1047.181498099018" y="447.6748348416947" 
				width="100" height="50" 
				class="node" rx="5"/><text x="1097.181498099018" y="477.6748348416947" class="label">NodeCentricAnalyzer.ts</text><rect x="23.203941018731797" y="465.43324851164164" 
				width="100" height="50" 
				class="node" rx="5"/><text x="73.2039410187318" y="495.43324851164164" class="label">NodeIdentifier.ts</text><rect x="907.4934259069464" y="360.62350554069224" 
				width="100" height="50" 
				class="node" rx="5"/><text x="957.4934259069464" y="390.62350554069224" class="label">index.ts</text><rect x="198.90743296183808" y="709.302518097797" 
				width="100" height="50" 
				class="node" rx="5"/><text x="248.90743296183808" y="739.302518097797" class="label">EdgeTypeWorkflows.ts</text><rect x="950.2471970863576" y="147.9261316808077" 
				width="100" height="50" 
				class="node" rx="5"/><text x="1000.2471970863576" y="177.9261316808077" class="label">FileDependencyExample.ts</text><rect x="86.73724987962055" y="583.4563695976772" 
				width="100" height="50" 
				class="node" rx="5"/><text x="136.73724987962055" y="613.4563695976772" class="label">index.ts</text><rect x="59.499790507418425" y="189.14085557789303" 
				width="100" height="50" 
				class="node" rx="5"/><text x="109.49979050741842" y="219.14085557789303" class="label">EdgeTypeRegistry.ts</text><rect x="392.05764046401026" y="290.0175000896102" 
				width="100" height="50" 
				class="node" rx="5"/><text x="442.05764046401026" y="320.0175000896102" class="label">InferenceEngine.ts</text><rect x="1066.0150815434074" y="501.7619311142946" 
				width="100" height="50" 
				class="node" rx="5"/><text x="1116.0150815434074" y="531.7619311142946" class="label">InferenceTypes.ts</text><rect x="282.8856589076129" y="175.92124851634514" 
				width="100" height="50" 
				class="node" rx="5"/><text x="332.8856589076129" y="205.92124851634514" class="label">UnknownNodeResolver.ts</text><rect x="684.5841770442441" y="315.59452292229366" 
				width="100" height="50" 
				class="node" rx="5"/><text x="734.5841770442441" y="345.59452292229366" class="label">index.ts</text><rect x="180.67012470041783" y="425.15225106555295" 
				width="100" height="50" 
				class="node" rx="5"/><text x="230.67012470041783" y="455.15225106555295" class="label">RdfSearchEngine.ts</text><rect x="291.3183666406177" y="552.3324188211977" 
				width="100" height="50" 
				class="node" rx="5"/><text x="341.3183666406177" y="582.3324188211977" class="label">index.ts</text><rect x="359.144532197615" y="722.4012608568489" 
				width="100" height="50" 
				class="node" rx="5"/><text x="409.144532197615" y="752.4012608568489" class="label">FileDependencyAnalyzer.ts</text><rect x="839.679298524581" y="183.50554886175004" 
				width="100" height="50" 
				class="node" rx="5"/><text x="889.679298524581" y="213.50554886175004" class="label">EdgeTypeManager.ts</text><rect x="822.6980448291016" y="480.39945216377305" 
				width="100" height="50" 
				class="node" rx="5"/><text x="872.6980448291016" y="510.39945216377305" class="label">TypeRegistry.ts</text><rect x="94.95546439719931" y="311.9869460723758" 
				width="100" height="50" 
				class="node" rx="5"/><text x="144.9554643971993" y="341.9869460723758" class="label">index.ts</text><rect x="190.2305191958292" y="498.5370324593688" 
				width="100" height="50" 
				class="node" rx="5"/><text x="240.2305191958292" y="528.5370324593688" class="label">IdentifierGenerator.ts</text><rect x="94.6242988908482" y="95.40478522595144" 
				width="100" height="50" 
				class="node" rx="5"/><text x="144.6242988908482" y="125.40478522595144" class="label">DependencyGraphBuilder.ts</text><rect x="312.5643855525819" y="54.45297371428761" 
				width="100" height="50" 
				class="node" rx="5"/><text x="362.5643855525819" y="84.45297371428761" class="label">GraphAnalyzer.ts</text><rect x="1039.3391217872095" y="122.75731480933877" 
				width="100" height="50" 
				class="node" rx="5"/><text x="1089.3391217872095" y="152.75731480933877" class="label">PathResolver.ts</text><rect x="162.67122811456244" y="344.1006318954152" 
				width="100" height="50" 
				class="node" rx="5"/><text x="212.67122811456244" y="374.1006318954152" class="label">api.ts</text><rect x="1072.615900663516" y="615.5629454365125" 
				width="100" height="50" 
				class="node" rx="5"/><text x="1122.615900663516" y="645.5629454365125" class="label">index.ts</text><rect x="433.2357907630044" y="235.88483275356555" 
				width="100" height="50" 
				class="node" rx="5"/><text x="483.2357907630044" y="265.88483275356555" class="label">types.ts</text><rect x="336.984651716688" y="25.028206040835357" 
				width="100" height="50" 
				class="node" rx="5"/><text x="386.984651716688" y="55.02820604083536" class="label">index.ts</text><rect x="848.7094642174028" y="335.38533356740294" 
				width="100" height="50" 
				class="node" rx="5"/><text x="898.7094642174028" y="365.38533356740294" class="label">DependencyToGraph.ts</text><rect x="182.16172225142543" y="30.85496967461812" 
				width="100" height="50" 
				class="node" rx="5"/><text x="232.16172225142543" y="60.85496967461812" class="label">MarkdownToGraph.ts</text><rect x="700.2480263765675" y="301.54711499743235" 
				width="100" height="50" 
				class="node" rx="5"/><text x="750.2480263765675" y="331.54711499743235" class="label">SingleFileAnalysis.ts</text><rect x="782.9631196691614" y="687.5445474614535" 
				width="100" height="50" 
				class="node" rx="5"/><text x="832.9631196691614" y="717.5445474614535" class="label">index.ts</text><rect x="559.2472734841214" y="630.7298750383363" 
				width="100" height="50" 
				class="node" rx="5"/><text x="609.2472734841214" y="660.7298750383363" class="label">CustomKeyMapper.ts</text><rect x="596.0251111531651" y="679.6567325704484" 
				width="100" height="50" 
				class="node" rx="5"/><text x="646.0251111531651" y="709.6567325704484" class="label">ConfigManager.ts</text><rect x="562.0319715558632" y="323.7155320204266" 
				width="100" height="50" 
				class="node" rx="5"/><text x="612.0319715558632" y="353.7155320204266" class="label">FilePatternMatcher.ts</text><rect x="239.53686111194764" y="655.2544733039259" 
				width="100" height="50" 
				class="node" rx="5"/><text x="289.53686111194764" y="685.2544733039259" class="label">NamespaceDependencyAnalyzer.ts</text><rect x="321.56992750380937" y="47.714942800627654" 
				width="100" height="50" 
				class="node" rx="5"/><text x="371.56992750380937" y="77.71494280062765" class="label">NamespaceGraphDB.ts</text><rect x="976.6768330772711" y="588.5469557590396" 
				width="100" height="50" 
				class="node" rx="5"/><text x="1026.676833077271" y="618.5469557590396" class="label">index.ts</text><rect x="146.8421180820434" y="278.5020211498845" 
				width="100" height="50" 
				class="node" rx="5"/><text x="196.8421180820434" y="308.5020211498845" class="label">types.ts</text><rect x="989.6966167179512" y="124.79322358780882" 
				width="100" height="50" 
				class="node" rx="5"/><text x="1039.6966167179512" y="154.79322358780882" class="label">ParserFactory.ts</text><rect x="118.18712178474505" y="613.5227246849385" 
				width="100" height="50" 
				class="node" rx="5"/><text x="168.18712178474505" y="643.5227246849385" class="label">ParserManager.ts</text><rect x="366.790313874878" y="33.7758605018772" 
				width="100" height="50" 
				class="node" rx="5"/><text x="416.790313874878" y="63.7758605018772" class="label">base.ts</text><rect x="549.7704122995248" y="522.6445496343451" 
				width="100" height="50" 
				class="node" rx="5"/><text x="599.7704122995248" y="552.6445496343451" class="label">GoParser.ts</text><rect x="518.0749973632735" y="612.8043503115299" 
				width="100" height="50" 
				class="node" rx="5"/><text x="568.0749973632735" y="642.8043503115299" class="label">index.ts</text><rect x="163.54725195731828" y="87.67891277359763" 
				width="100" height="50" 
				class="node" rx="5"/><text x="213.54725195731828" y="117.67891277359763" class="label">index.ts</text><rect x="291.0245651770091" y="299.7813679053713" 
				width="100" height="50" 
				class="node" rx="5"/><text x="341.0245651770091" y="329.7813679053713" class="label">JavaParser.ts</text><rect x="239.01741011875833" y="288.5591198792802" 
				width="100" height="50" 
				class="node" rx="5"/><text x="289.01741011875833" y="318.5591198792802" class="label">index.ts</text><rect x="755.0851664145778" y="89.46190970230043" 
				width="100" height="50" 
				class="node" rx="5"/><text x="805.0851664145778" y="119.46190970230043" class="label">PythonParser.ts</text><rect x="288.94018875450473" y="106.42453440989351" 
				width="100" height="50" 
				class="node" rx="5"/><text x="338.94018875450473" y="136.4245344098935" class="label">index.ts</text><rect x="43.051012181305424" y="405.7168756976382" 
				width="100" height="50" 
				class="node" rx="5"/><text x="93.05101218130542" y="435.7168756976382" class="label">TypeScriptParser.ts</text><rect x="282.1497115526165" y="264.6860277556683" 
				width="100" height="50" 
				class="node" rx="5"/><text x="332.1497115526165" y="294.6860277556683" class="label">index.ts</text><rect x="281.75731614871825" y="604.0791560863961" 
				width="100" height="50" 
				class="node" rx="5"/><text x="331.75731614871825" y="634.0791560863961" class="label">exports.ts</text><rect x="439.24688699909916" y="247.97797497359892" 
				width="100" height="50" 
				class="node" rx="5"/><text x="489.24688699909916" y="277.9779749735989" class="label">imports.ts</text><rect x="535.1597694434987" y="313.3030995288102" 
				width="100" height="50" 
				class="node" rx="5"/><text x="585.1597694434987" y="343.3030995288102" class="label">index.ts</text><rect x="553.2581378070236" y="257.5918335670956" 
				width="100" height="50" 
				class="node" rx="5"/><text x="603.2581378070236" y="287.5918335670956" class="label">tree-sitter-queries.ts</text><rect x="1075.7925992460348" y="645.1820268901579" 
				width="100" height="50" 
				class="node" rx="5"/><text x="1125.7925992460348" y="675.1820268901579" class="label">exports.ts</text><rect x="1081.5601916379392" y="507.4524357586665" 
				width="100" height="50" 
				class="node" rx="5"/><text x="1131.5601916379392" y="537.4524357586665" class="label">imports.ts</text><rect x="522.7798839469552" y="142.85924673424688" 
				width="100" height="50" 
				class="node" rx="5"/><text x="572.7798839469552" y="172.85924673424688" class="label">index.ts</text><rect x="931.6158884898873" y="384.04204939715027" 
				width="100" height="50" 
				class="node" rx="5"/><text x="981.6158884898873" y="414.04204939715027" class="label">tree-sitter-queries.ts</text><rect x="327.35689899315787" y="308.8580204528409" 
				width="100" height="50" 
				class="node" rx="5"/><text x="377.35689899315787" y="338.8580204528409" class="label">exports.ts</text><rect x="24.738919522078078" y="71.06709647312523" 
				width="100" height="50" 
				class="node" rx="5"/><text x="74.73891952207808" y="101.06709647312523" class="label">imports.ts</text><rect x="938.612114337579" y="394.6369066214768" 
				width="100" height="50" 
				class="node" rx="5"/><text x="988.612114337579" y="424.6369066214768" class="label">index.ts</text><rect x="52.481895661107615" y="185.52050421569652" 
				width="100" height="50" 
				class="node" rx="5"/><text x="102.48189566110761" y="215.52050421569652" class="label">tree-sitter-queries.ts</text><rect x="510.4902358396987" y="646.2785457808238" 
				width="100" height="50" 
				class="node" rx="5"/><text x="560.4902358396987" y="676.2785457808238" class="label">base.ts</text><rect x="848.4078342975599" y="655.216506202484" 
				width="100" height="50" 
				class="node" rx="5"/><text x="898.4078342975599" y="685.216506202484" class="label">classes.ts</text><rect x="146.99107472017837" y="116.47413096539242" 
				width="100" height="50" 
				class="node" rx="5"/><text x="196.99107472017837" y="146.47413096539242" class="label">exports.ts</text><rect x="340.32216411668134" y="147.580180412075" 
				width="100" height="50" 
				class="node" rx="5"/><text x="390.32216411668134" y="177.580180412075" class="label">functions.ts</text><rect x="909.1923783295325" y="307.63110110781093" 
				width="100" height="50" 
				class="node" rx="5"/><text x="959.1923783295325" y="337.63110110781093" class="label">imports.ts</text><rect x="671.7900961052231" y="67.94482100854543" 
				width="100" height="50" 
				class="node" rx="5"/><text x="721.7900961052231" y="97.94482100854543" class="label">index.ts</text><rect x="530.6285142079372" y="265.411555302272" 
				width="100" height="50" 
				class="node" rx="5"/><text x="580.6285142079372" y="295.411555302272" class="label">java.ts</text><rect x="54.87316118757579" y="451.30195941998494" 
				width="100" height="50" 
				class="node" rx="5"/><text x="104.87316118757579" y="481.30195941998494" class="label">python.ts</text><rect x="60.93261928972976" y="457.796875428849" 
				width="100" height="50" 
				class="node" rx="5"/><text x="110.93261928972976" y="487.796875428849" class="label">BaseScenarioAnalyzer.ts</text><rect x="693.6399353290699" y="530.8581675794424" 
				width="100" height="50" 
				class="node" rx="5"/><text x="743.6399353290699" y="560.8581675794424" class="label">ScenarioRegistry.ts</text><rect x="500.557276287984" y="286.9133356489389" 
				width="100" height="50" 
				class="node" rx="5"/><text x="550.557276287984" y="316.9133356489389" class="label">MethodAnalyzer.ts</text><rect x="953.1272004553758" y="518.2801662692904" 
				width="100" height="50" 
				class="node" rx="5"/><text x="1003.1272004553758" y="548.2801662692904" class="label">basic-structure.ts</text><rect x="1030.5352780145363" y="70.25915452754847" 
				width="100" height="50" 
				class="node" rx="5"/><text x="1080.5352780145363" y="100.25915452754847" class="label">file-dependency.ts</text><rect x="201.05918651966533" y="407.3516841523827" 
				width="100" height="50" 
				class="node" rx="5"/><text x="251.05918651966533" y="437.3516841523827" class="label">index.ts</text><rect x="1027.3962519218119" y="506.0885012583092" 
				width="100" height="50" 
				class="node" rx="5"/><text x="1077.3962519218119" y="536.0885012583092" class="label">markdown-linking.ts</text><rect x="353.4060673070828" y="647.0181684449158" 
				width="100" height="50" 
				class="node" rx="5"/><text x="403.4060673070828" y="677.0181684449158" class="label">method-analysis.ts</text><rect x="110.2428347871444" y="535.4325147104302" 
				width="100" height="50" 
				class="node" rx="5"/><text x="160.2428347871444" y="565.4325147104302" class="label">symbol-dependency.ts</text><rect x="849.3454267028579" y="140.68066277423213" 
				width="100" height="50" 
				class="node" rx="5"/><text x="899.3454267028579" y="170.68066277423213" class="label">index.ts</text><rect x="645.8835271544839" y="689.4306201589802" 
				width="100" height="50" 
				class="node" rx="5"/><text x="695.8835271544839" y="719.4306201589802" class="label">types.ts</text><rect x="516.5021446801222" y="678.3037035275906" 
				width="100" height="50" 
				class="node" rx="5"/><text x="566.5021446801222" y="708.3037035275906" class="label">validation.ts</text><rect x="578.3997976653201" y="264.81901101652716" 
				width="100" height="50" 
				class="node" rx="5"/><text x="628.3997976653201" y="294.81901101652716" class="label">ast-helpers.ts</text><rect x="336.33860171544586" y="110.72250822029116" 
				width="100" height="50" 
				class="node" rx="5"/><text x="386.33860171544586" y="140.72250822029116" class="label">index.ts</text><rect x="790.7658221208127" y="298.5677402261266" 
				width="100" height="50" 
				class="node" rx="5"/><text x="840.7658221208127" y="328.5677402261266" class="label">validation.ts</text><rect x="866.958665083665" y="717.8853774749889" 
				width="100" height="50" 
				class="node" rx="5"/><text x="916.958665083665" y="747.8853774749889" class="label">core-functionality.test.ts</text><rect x="830.670590030716" y="395.1330318984165" 
				width="100" height="50" 
				class="node" rx="5"/><text x="880.670590030716" y="425.1330318984165" class="label">circular-dependency.test.ts</text><rect x="881.0115572611801" y="429.69975566134997" 
				width="100" height="50" 
				class="node" rx="5"/><text x="931.0115572611801" y="459.69975566134997" class="label">graph-analysis.test.ts</text><rect x="302.81706274809613" y="476.1604814645308" 
				width="100" height="50" 
				class="node" rx="5"/><text x="352.81706274809613" y="506.1604814645308" class="label">inference-engine.test.ts</text><rect x="877.6721478672106" y="501.11051120012826" 
				width="100" height="50" 
				class="node" rx="5"/><text x="927.6721478672106" y="531.1105112001283" class="label">rdf-addressing.test.ts</text><rect x="880.8560550684368" y="308.8497894030078" 
				width="100" height="50" 
				class="node" rx="5"/><text x="930.8560550684368" y="338.8497894030078" class="label">graph-analysis.test.ts</text><rect x="283.4791313210054" y="169.1835463911691" 
				width="100" height="50" 
				class="node" rx="5"/><text x="333.4791313210054" y="199.1835463911691" class="label">markdown-dependency-tracking.test.ts</text><rect x="738.6062808884913" y="156.6778874135883" 
				width="100" height="50" 
				class="node" rx="5"/><text x="788.6062808884913" y="186.6778874135883" class="label">namespace-config.test.ts</text><rect x="33.30505735012257" y="159.8266027194634" 
				width="100" height="50" 
				class="node" rx="5"/><text x="83.30505735012257" y="189.8266027194634" class="label">namespace-scenario-integration.test.ts</text><rect x="783.4176246755477" y="627.2694051067921" 
				width="100" height="50" 
				class="node" rx="5"/><text x="833.4176246755477" y="657.2694051067921" class="label">scenarios-analyzer.test.ts</text><rect x="536.921739383154" y="244.2787119985543" 
				width="100" height="50" 
				class="node" rx="5"/><text x="586.921739383154" y="274.2787119985543" class="label">scenarios-builtin.test.ts</text><rect x="553.3606933700182" y="330.1098493842894" 
				width="100" height="50" 
				class="node" rx="5"/><text x="603.3606933700182" y="360.1098493842894" class="label">scenarios-registry.test.ts</text><rect x="1074.1210695906282" y="35.96658711309024" 
				width="100" height="50" 
				class="node" rx="5"/><text x="1124.1210695906282" y="65.96658711309024" class="label">scenarios-types.test.ts</text><rect x="454.52036106643965" y="511.6884472572458" 
				width="100" height="50" 
				class="node" rx="5"/><text x="504.52036106643965" y="541.6884472572458" class="label">setup.ts</text><rect x="1061.2437010874378" y="204.53014591744264" 
				width="100" height="50" 
				class="node" rx="5"/><text x="1111.2437010874378" y="234.53014591744264" class="label">test-helpers.ts</text><line x1="0" y1="0" 
					x2="0" y2="0" 
					class="edge" marker-end="url(#arrowhead)"/><line x1="0" y1="0" 
					x2="0" y2="0" 
					class="edge" marker-end="url(#arrowhead)"/><line x1="0" y1="0" 
					x2="0" y2="0" 
					class="edge" marker-end="url(#arrowhead)"/><line x1="0" y1="0" 
					x2="0" y2="0" 
					class="edge" marker-end="url(#arrowhead)"/><line x1="0" y1="0" 
					x2="0" y2="0" 
					class="edge" marker-end="url(#arrowhead)"/><line x1="0" y1="0" 
					x2="0" y2="0" 
					class="edge" marker-end="url(#arrowhead)"/><line x1="0" y1="0" 
					x2="0" y2="0" 
					class="edge" marker-end="url(#arrowhead)"/><line x1="0" y1="0" 
					x2="0" y2="0" 
					class="edge" marker-end="url(#arrowhead)"/><line x1="0" y1="0" 
					x2="0" y2="0" 
					class="edge" marker-end="url(#arrowhead)"/><line x1="0" y1="0" 
					x2="0" y2="0" 
					class="edge" marker-end="url(#arrowhead)"/><line x1="0" y1="0" 
					x2="0" y2="0" 
					class="edge" marker-end="url(#arrowhead)"/><line x1="0" y1="0" 
					x2="0" y2="0" 
					class="edge" marker-end="url(#arrowhead)"/><line x1="0" y1="0" 
					x2="0" y2="0" 
					class="edge" marker-end="url(#arrowhead)"/><line x1="0" y1="0" 
					x2="0" y2="0" 
					class="edge" marker-end="url(#arrowhead)"/><line x1="0" y1="0" 
					x2="0" y2="0" 
					class="edge" marker-end="url(#arrowhead)"/><line x1="0" y1="0" 
					x2="0" y2="0" 
					class="edge" marker-end="url(#arrowhead)"/><line x1="0" y1="0" 
					x2="0" y2="0" 
					class="edge" marker-end="url(#arrowhead)"/><line x1="0" y1="0" 
					x2="0" y2="0" 
					class="edge" marker-end="url(#arrowhead)"/><line x1="0" y1="0" 
					x2="0" y2="0" 
					class="edge" marker-end="url(#arrowhead)"/><line x1="0" y1="0" 
					x2="0" y2="0" 
					class="edge" marker-end="url(#arrowhead)"/><line x1="0" y1="0" 
					x2="0" y2="0" 
					class="edge" marker-end="url(#arrowhead)"/><line x1="0" y1="0" 
					x2="0" y2="0" 
					class="edge" marker-end="url(#arrowhead)"/><line x1="0" y1="0" 
					x2="0" y2="0" 
					class="edge" marker-end="url(#arrowhead)"/><line x1="0" y1="0" 
					x2="0" y2="0" 
					class="edge" marker-end="url(#arrowhead)"/><line x1="0" y1="0" 
					x2="0" y2="0" 
					class="edge" marker-end="url(#arrowhead)"/><line x1="0" y1="0" 
					x2="0" y2="0" 
					class="edge" marker-end="url(#arrowhead)"/><line x1="0" y1="0" 
					x2="0" y2="0" 
					class="edge" marker-end="url(#arrowhead)"/><line x1="0" y1="0" 
					x2="0" y2="0" 
					class="edge" marker-end="url(#arrowhead)"/><line x1="0" y1="0" 
					x2="0" y2="0" 
					class="edge" marker-end="url(#arrowhead)"/><line x1="0" y1="0" 
					x2="0" y2="0" 
					class="edge" marker-end="url(#arrowhead)"/><line x1="0" y1="0" 
					x2="0" y2="0" 
					class="edge" marker-end="url(#arrowhead)"/><line x1="0" y1="0" 
					x2="0" y2="0" 
					class="edge" marker-end="url(#arrowhead)"/><line x1="0" y1="0" 
					x2="0" y2="0" 
					class="edge" marker-end="url(#arrowhead)"/><line x1="0" y1="0" 
					x2="0" y2="0" 
					class="edge" marker-end="url(#arrowhead)"/><line x1="0" y1="0" 
					x2="0" y2="0" 
					class="edge" marker-end="url(#arrowhead)"/><line x1="0" y1="0" 
					x2="0" y2="0" 
					class="edge" marker-end="url(#arrowhead)"/><line x1="0" y1="0" 
					x2="0" y2="0" 
					class="edge" marker-end="url(#arrowhead)"/><line x1="0" y1="0" 
					x2="0" y2="0" 
					class="edge" marker-end="url(#arrowhead)"/><line x1="0" y1="0" 
					x2="0" y2="0" 
					class="edge" marker-end="url(#arrowhead)"/><line x1="0" y1="0" 
					x2="0" y2="0" 
					class="edge" marker-end="url(#arrowhead)"/><line x1="0" y1="0" 
					x2="0" y2="0" 
					class="edge" marker-end="url(#arrowhead)"/><line x1="0" y1="0" 
					x2="0" y2="0" 
					class="edge" marker-end="url(#arrowhead)"/><line x1="0" y1="0" 
					x2="0" y2="0" 
					class="edge" marker-end="url(#arrowhead)"/><line x1="0" y1="0" 
					x2="0" y2="0" 
					class="edge" marker-end="url(#arrowhead)"/><line x1="0" y1="0" 
					x2="0" y2="0" 
					class="edge" marker-end="url(#arrowhead)"/><line x1="0" y1="0" 
					x2="0" y2="0" 
					class="edge" marker-end="url(#arrowhead)"/><line x1="0" y1="0" 
					x2="0" y2="0" 
					class="edge" marker-end="url(#arrowhead)"/><line x1="0" y1="0" 
					x2="0" y2="0" 
					class="edge" marker-end="url(#arrowhead)"/><line x1="0" y1="0" 
					x2="0" y2="0" 
					class="edge" marker-end="url(#arrowhead)"/><line x1="0" y1="0" 
					x2="0" y2="0" 
					class="edge" marker-end="url(#arrowhead)"/><line x1="0" y1="0" 
					x2="0" y2="0" 
					class="edge" marker-end="url(#arrowhead)"/><line x1="0" y1="0" 
					x2="0" y2="0" 
					class="edge" marker-end="url(#arrowhead)"/><line x1="0" y1="0" 
					x2="0" y2="0" 
					class="edge" marker-end="url(#arrowhead)"/><line x1="0" y1="0" 
					x2="0" y2="0" 
					class="edge" marker-end="url(#arrowhead)"/><line x1="0" y1="0" 
					x2="0" y2="0" 
					class="edge" marker-end="url(#arrowhead)"/><line x1="0" y1="0" 
					x2="0" y2="0" 
					class="edge" marker-end="url(#arrowhead)"/><line x1="0" y1="0" 
					x2="0" y2="0" 
					class="edge" marker-end="url(#arrowhead)"/><line x1="0" y1="0" 
					x2="0" y2="0" 
					class="edge" marker-end="url(#arrowhead)"/><line x1="0" y1="0" 
					x2="0" y2="0" 
					class="edge" marker-end="url(#arrowhead)"/><line x1="0" y1="0" 
					x2="0" y2="0" 
					class="edge" marker-end="url(#arrowhead)"/><line x1="0" y1="0" 
					x2="0" y2="0" 
					class="edge" marker-end="url(#arrowhead)"/><line x1="0" y1="0" 
					x2="0" y2="0" 
					class="edge" marker-end="url(#arrowhead)"/><line x1="0" y1="0" 
					x2="0" y2="0" 
					class="edge" marker-end="url(#arrowhead)"/><line x1="0" y1="0" 
					x2="0" y2="0" 
					class="edge" marker-end="url(#arrowhead)"/><line x1="0" y1="0" 
					x2="0" y2="0" 
					class="edge" marker-end="url(#arrowhead)"/><line x1="0" y1="0" 
					x2="0" y2="0" 
					class="edge" marker-end="url(#arrowhead)"/><line x1="0" y1="0" 
					x2="0" y2="0" 
					class="edge" marker-end="url(#arrowhead)"/><line x1="0" y1="0" 
					x2="0" y2="0" 
					class="edge" marker-end="url(#arrowhead)"/><line x1="0" y1="0" 
					x2="0" y2="0" 
					class="edge" marker-end="url(#arrowhead)"/><line x1="0" y1="0" 
					x2="0" y2="0" 
					class="edge" marker-end="url(#arrowhead)"/><line x1="0" y1="0" 
					x2="0" y2="0" 
					class="edge" marker-end="url(#arrowhead)"/><line x1="0" y1="0" 
					x2="0" y2="0" 
					class="edge" marker-end="url(#arrowhead)"/><line x1="0" y1="0" 
					x2="0" y2="0" 
					class="edge" marker-end="url(#arrowhead)"/><line x1="0" y1="0" 
					x2="0" y2="0" 
					class="edge" marker-end="url(#arrowhead)"/><line x1="0" y1="0" 
					x2="0" y2="0" 
					class="edge" marker-end="url(#arrowhead)"/><line x1="0" y1="0" 
					x2="0" y2="0" 
					class="edge" marker-end="url(#arrowhead)"/><line x1="0" y1="0" 
					x2="0" y2="0" 
					class="edge" marker-end="url(#arrowhead)"/><line x1="0" y1="0" 
					x2="0" y2="0" 
					class="edge" marker-end="url(#arrowhead)"/><line x1="0" y1="0" 
					x2="0" y2="0" 
					class="edge" marker-end="url(#arrowhead)"/><line x1="0" y1="0" 
					x2="0" y2="0" 
					class="edge" marker-end="url(#arrowhead)"/><line x1="0" y1="0" 
					x2="0" y2="0" 
					class="edge" marker-end="url(#arrowhead)"/><line x1="0" y1="0" 
					x2="0" y2="0" 
					class="edge" marker-end="url(#arrowhead)"/><line x1="0" y1="0" 
					x2="0" y2="0" 
					class="edge" marker-end="url(#arrowhead)"/><line x1="0" y1="0" 
					x2="0" y2="0" 
					class="edge" marker-end="url(#arrowhead)"/><line x1="0" y1="0" 
					x2="0" y2="0" 
					class="edge" marker-end="url(#arrowhead)"/><line x1="0" y1="0" 
					x2="0" y2="0" 
					class="edge" marker-end="url(#arrowhead)"/><line x1="0" y1="0" 
					x2="0" y2="0" 
					class="edge" marker-end="url(#arrowhead)"/><line x1="0" y1="0" 
					x2="0" y2="0" 
					class="edge" marker-end="url(#arrowhead)"/><line x1="0" y1="0" 
					x2="0" y2="0" 
					class="edge" marker-end="url(#arrowhead)"/><line x1="0" y1="0" 
					x2="0" y2="0" 
					class="edge" marker-end="url(#arrowhead)"/><line x1="0" y1="0" 
					x2="0" y2="0" 
					class="edge" marker-end="url(#arrowhead)"/><line x1="0" y1="0" 
					x2="0" y2="0" 
					class="edge" marker-end="url(#arrowhead)"/><line x1="0" y1="0" 
					x2="0" y2="0" 
					class="edge" marker-end="url(#arrowhead)"/><line x1="0" y1="0" 
					x2="0" y2="0" 
					class="edge" marker-end="url(#arrowhead)"/><line x1="0" y1="0" 
					x2="0" y2="0" 
					class="edge" marker-end="url(#arrowhead)"/><line x1="0" y1="0" 
					x2="0" y2="0" 
					class="edge" marker-end="url(#arrowhead)"/><line x1="0" y1="0" 
					x2="0" y2="0" 
					class="edge" marker-end="url(#arrowhead)"/><line x1="0" y1="0" 
					x2="0" y2="0" 
					class="edge" marker-end="url(#arrowhead)"/><line x1="0" y1="0" 
					x2="0" y2="0" 
					class="edge" marker-end="url(#arrowhead)"/><line x1="0" y1="0" 
					x2="0" y2="0" 
					class="edge" marker-end="url(#arrowhead)"/><line x1="0" y1="0" 
					x2="0" y2="0" 
					class="edge" marker-end="url(#arrowhead)"/><line x1="0" y1="0" 
					x2="0" y2="0" 
					class="edge" marker-end="url(#arrowhead)"/><line x1="0" y1="0" 
					x2="0" y2="0" 
					class="edge" marker-end="url(#arrowhead)"/><line x1="0" y1="0" 
					x2="0" y2="0" 
					class="edge" marker-end="url(#arrowhead)"/><line x1="0" y1="0" 
					x2="0" y2="0" 
					class="edge" marker-end="url(#arrowhead)"/><line x1="0" y1="0" 
					x2="0" y2="0" 
					class="edge" marker-end="url(#arrowhead)"/><line x1="0" y1="0" 
					x2="0" y2="0" 
					class="edge" marker-end="url(#arrowhead)"/><line x1="0" y1="0" 
					x2="0" y2="0" 
					class="edge" marker-end="url(#arrowhead)"/><line x1="0" y1="0" 
					x2="0" y2="0" 
					class="edge" marker-end="url(#arrowhead)"/><line x1="0" y1="0" 
					x2="0" y2="0" 
					class="edge" marker-end="url(#arrowhead)"/><line x1="0" y1="0" 
					x2="0" y2="0" 
					class="edge" marker-end="url(#arrowhead)"/><line x1="0" y1="0" 
					x2="0" y2="0" 
					class="edge" marker-end="url(#arrowhead)"/><line x1="0" y1="0" 
					x2="0" y2="0" 
					class="edge" marker-end="url(#arrowhead)"/><line x1="0" y1="0" 
					x2="0" y2="0" 
					class="edge" marker-end="url(#arrowhead)"/><line x1="0" y1="0" 
					x2="0" y2="0" 
					class="edge" marker-end="url(#arrowhead)"/><line x1="0" y1="0" 
					x2="0" y2="0" 
					class="edge" marker-end="url(#arrowhead)"/><line x1="0" y1="0" 
					x2="0" y2="0" 
					class="edge" marker-end="url(#arrowhead)"/><line x1="0" y1="0" 
					x2="0" y2="0" 
					class="edge" marker-end="url(#arrowhead)"/><line x1="0" y1="0" 
					x2="0" y2="0" 
					class="edge" marker-end="url(#arrowhead)"/><line x1="0" y1="0" 
					x2="0" y2="0" 
					class="edge" marker-end="url(#arrowhead)"/><line x1="0" y1="0" 
					x2="0" y2="0" 
					class="edge" marker-end="url(#arrowhead)"/><line x1="0" y1="0" 
					x2="0" y2="0" 
					class="edge" marker-end="url(#arrowhead)"/><line x1="0" y1="0" 
					x2="0" y2="0" 
					class="edge" marker-end="url(#arrowhead)"/><line x1="0" y1="0" 
					x2="0" y2="0" 
					class="edge" marker-end="url(#arrowhead)"/><line x1="0" y1="0" 
					x2="0" y2="0" 
					class="edge" marker-end="url(#arrowhead)"/><line x1="0" y1="0" 
					x2="0" y2="0" 
					class="edge" marker-end="url(#arrowhead)"/><line x1="0" y1="0" 
					x2="0" y2="0" 
					class="edge" marker-end="url(#arrowhead)"/><line x1="0" y1="0" 
					x2="0" y2="0" 
					class="edge" marker-end="url(#arrowhead)"/><line x1="0" y1="0" 
					x2="0" y2="0" 
					class="edge" marker-end="url(#arrowhead)"/><line x1="0" y1="0" 
					x2="0" y2="0" 
					class="edge" marker-end="url(#arrowhead)"/><line x1="0" y1="0" 
					x2="0" y2="0" 
					class="edge" marker-end="url(#arrowhead)"/><line x1="0" y1="0" 
					x2="0" y2="0" 
					class="edge" marker-end="url(#arrowhead)"/><line x1="0" y1="0" 
					x2="0" y2="0" 
					class="edge" marker-end="url(#arrowhead)"/><line x1="0" y1="0" 
					x2="0" y2="0" 
					class="edge" marker-end="url(#arrowhead)"/><line x1="0" y1="0" 
					x2="0" y2="0" 
					class="edge" marker-end="url(#arrowhead)"/><line x1="0" y1="0" 
					x2="0" y2="0" 
					class="edge" marker-end="url(#arrowhead)"/><line x1="0" y1="0" 
					x2="0" y2="0" 
					class="edge" marker-end="url(#arrowhead)"/><line x1="0" y1="0" 
					x2="0" y2="0" 
					class="edge" marker-end="url(#arrowhead)"/><line x1="0" y1="0" 
					x2="0" y2="0" 
					class="edge" marker-end="url(#arrowhead)"/><line x1="0" y1="0" 
					x2="0" y2="0" 
					class="edge" marker-end="url(#arrowhead)"/><line x1="0" y1="0" 
					x2="0" y2="0" 
					class="edge" marker-end="url(#arrowhead)"/><line x1="0" y1="0" 
					x2="0" y2="0" 
					class="edge" marker-end="url(#arrowhead)"/><line x1="0" y1="0" 
					x2="0" y2="0" 
					class="edge" marker-end="url(#arrowhead)"/><line x1="0" y1="0" 
					x2="0" y2="0" 
					class="edge" marker-end="url(#arrowhead)"/><line x1="0" y1="0" 
					x2="0" y2="0" 
					class="edge" marker-end="url(#arrowhead)"/><line x1="0" y1="0" 
					x2="0" y2="0" 
					class="edge" marker-end="url(#arrowhead)"/><line x1="0" y1="0" 
					x2="0" y2="0" 
					class="edge" marker-end="url(#arrowhead)"/><line x1="0" y1="0" 
					x2="0" y2="0" 
					class="edge" marker-end="url(#arrowhead)"/><line x1="0" y1="0" 
					x2="0" y2="0" 
					class="edge" marker-end="url(#arrowhead)"/><line x1="0" y1="0" 
					x2="0" y2="0" 
					class="edge" marker-end="url(#arrowhead)"/><line x1="0" y1="0" 
					x2="0" y2="0" 
					class="edge" marker-end="url(#arrowhead)"/><line x1="0" y1="0" 
					x2="0" y2="0" 
					class="edge" marker-end="url(#arrowhead)"/><line x1="0" y1="0" 
					x2="0" y2="0" 
					class="edge" marker-end="url(#arrowhead)"/><line x1="0" y1="0" 
					x2="0" y2="0" 
					class="edge" marker-end="url(#arrowhead)"/><line x1="0" y1="0" 
					x2="0" y2="0" 
					class="edge" marker-end="url(#arrowhead)"/><line x1="0" y1="0" 
					x2="0" y2="0" 
					class="edge" marker-end="url(#arrowhead)"/><line x1="0" y1="0" 
					x2="0" y2="0" 
					class="edge" marker-end="url(#arrowhead)"/><line x1="0" y1="0" 
					x2="0" y2="0" 
					class="edge" marker-end="url(#arrowhead)"/><line x1="0" y1="0" 
					x2="0" y2="0" 
					class="edge" marker-end="url(#arrowhead)"/><line x1="0" y1="0" 
					x2="0" y2="0" 
					class="edge" marker-end="url(#arrowhead)"/><line x1="0" y1="0" 
					x2="0" y2="0" 
					class="edge" marker-end="url(#arrowhead)"/><line x1="0" y1="0" 
					x2="0" y2="0" 
					class="edge" marker-end="url(#arrowhead)"/><line x1="0" y1="0" 
					x2="0" y2="0" 
					class="edge" marker-end="url(#arrowhead)"/><line x1="0" y1="0" 
					x2="0" y2="0" 
					class="edge" marker-end="url(#arrowhead)"/><line x1="0" y1="0" 
					x2="0" y2="0" 
					class="edge" marker-end="url(#arrowhead)"/><line x1="0" y1="0" 
					x2="0" y2="0" 
					class="edge" marker-end="url(#arrowhead)"/><line x1="0" y1="0" 
					x2="0" y2="0" 
					class="edge" marker-end="url(#arrowhead)"/><line x1="0" y1="0" 
					x2="0" y2="0" 
					class="edge" marker-end="url(#arrowhead)"/><line x1="0" y1="0" 
					x2="0" y2="0" 
					class="edge" marker-end="url(#arrowhead)"/><line x1="0" y1="0" 
					x2="0" y2="0" 
					class="edge" marker-end="url(#arrowhead)"/><line x1="0" y1="0" 
					x2="0" y2="0" 
					class="edge" marker-end="url(#arrowhead)"/><line x1="0" y1="0" 
					x2="0" y2="0" 
					class="edge" marker-end="url(#arrowhead)"/><line x1="0" y1="0" 
					x2="0" y2="0" 
					class="edge" marker-end="url(#arrowhead)"/><line x1="0" y1="0" 
					x2="0" y2="0" 
					class="edge" marker-end="url(#arrowhead)"/><line x1="0" y1="0" 
					x2="0" y2="0" 
					class="edge" marker-end="url(#arrowhead)"/><line x1="0" y1="0" 
					x2="0" y2="0" 
					class="edge" marker-end="url(#arrowhead)"/><line x1="0" y1="0" 
					x2="0" y2="0" 
					class="edge" marker-end="url(#arrowhead)"/><line x1="0" y1="0" 
					x2="0" y2="0" 
					class="edge" marker-end="url(#arrowhead)"/><line x1="0" y1="0" 
					x2="0" y2="0" 
					class="edge" marker-end="url(#arrowhead)"/><line x1="0" y1="0" 
					x2="0" y2="0" 
					class="edge" marker-end="url(#arrowhead)"/><line x1="0" y1="0" 
					x2="0" y2="0" 
					class="edge" marker-end="url(#arrowhead)"/><line x1="0" y1="0" 
					x2="0" y2="0" 
					class="edge" marker-end="url(#arrowhead)"/><line x1="0" y1="0" 
					x2="0" y2="0" 
					class="edge" marker-end="url(#arrowhead)"/><line x1="0" y1="0" 
					x2="0" y2="0" 
					class="edge" marker-end="url(#arrowhead)"/><line x1="0" y1="0" 
					x2="0" y2="0" 
					class="edge" marker-end="url(#arrowhead)"/><line x1="0" y1="0" 
					x2="0" y2="0" 
					class="edge" marker-end="url(#arrowhead)"/><line x1="0" y1="0" 
					x2="0" y2="0" 
					class="edge" marker-end="url(#arrowhead)"/><line x1="0" y1="0" 
					x2="0" y2="0" 
					class="edge" marker-end="url(#arrowhead)"/><line x1="0" y1="0" 
					x2="0" y2="0" 
					class="edge" marker-end="url(#arrowhead)"/><line x1="0" y1="0" 
					x2="0" y2="0" 
					class="edge" marker-end="url(#arrowhead)"/><line x1="0" y1="0" 
					x2="0" y2="0" 
					class="edge" marker-end="url(#arrowhead)"/><line x1="0" y1="0" 
					x2="0" y2="0" 
					class="edge" marker-end="url(#arrowhead)"/><line x1="0" y1="0" 
					x2="0" y2="0" 
					class="edge" marker-end="url(#arrowhead)"/><line x1="0" y1="0" 
					x2="0" y2="0" 
					class="edge" marker-end="url(#arrowhead)"/><line x1="0" y1="0" 
					x2="0" y2="0" 
					class="edge" marker-end="url(#arrowhead)"/><line x1="0" y1="0" 
					x2="0" y2="0" 
					class="edge" marker-end="url(#arrowhead)"/><line x1="0" y1="0" 
					x2="0" y2="0" 
					class="edge" marker-end="url(#arrowhead)"/><line x1="0" y1="0" 
					x2="0" y2="0" 
					class="edge" marker-end="url(#arrowhead)"/><line x1="0" y1="0" 
					x2="0" y2="0" 
					class="edge" marker-end="url(#arrowhead)"/><line x1="0" y1="0" 
					x2="0" y2="0" 
					class="edge" marker-end="url(#arrowhead)"/><line x1="0" y1="0" 
					x2="0" y2="0" 
					class="edge" marker-end="url(#arrowhead)"/><line x1="0" y1="0" 
					x2="0" y2="0" 
					class="edge" marker-end="url(#arrowhead)"/><line x1="0" y1="0" 
					x2="0" y2="0" 
					class="edge" marker-end="url(#arrowhead)"/><line x1="0" y1="0" 
					x2="0" y2="0" 
					class="edge" marker-end="url(#arrowhead)"/><line x1="0" y1="0" 
					x2="0" y2="0" 
					class="edge" marker-end="url(#arrowhead)"/><line x1="0" y1="0" 
					x2="0" y2="0" 
					class="edge" marker-end="url(#arrowhead)"/><line x1="0" y1="0" 
					x2="0" y2="0" 
					class="edge" marker-end="url(#arrowhead)"/><line x1="0" y1="0" 
					x2="0" y2="0" 
					class="edge" marker-end="url(#arrowhead)"/><line x1="0" y1="0" 
					x2="0" y2="0" 
					class="edge" marker-end="url(#arrowhead)"/><line x1="0" y1="0" 
					x2="0" y2="0" 
					class="edge" marker-end="url(#arrowhead)"/><line x1="0" y1="0" 
					x2="0" y2="0" 
					class="edge" marker-end="url(#arrowhead)"/><line x1="0" y1="0" 
					x2="0" y2="0" 
					class="edge" marker-end="url(#arrowhead)"/><line x1="0" y1="0" 
					x2="0" y2="0" 
					class="edge" marker-end="url(#arrowhead)"/><line x1="0" y1="0" 
					x2="0" y2="0" 
					class="edge" marker-end="url(#arrowhead)"/><line x1="0" y1="0" 
					x2="0" y2="0" 
					class="edge" marker-end="url(#arrowhead)"/><line x1="0" y1="0" 
					x2="0" y2="0" 
					class="edge" marker-end="url(#arrowhead)"/><line x1="0" y1="0" 
					x2="0" y2="0" 
					class="edge" marker-end="url(#arrowhead)"/><line x1="0" y1="0" 
					x2="0" y2="0" 
					class="edge" marker-end="url(#arrowhead)"/><line x1="0" y1="0" 
					x2="0" y2="0" 
					class="edge" marker-end="url(#arrowhead)"/><line x1="0" y1="0" 
					x2="0" y2="0" 
					class="edge" marker-end="url(#arrowhead)"/><line x1="0" y1="0" 
					x2="0" y2="0" 
					class="edge" marker-end="url(#arrowhead)"/><line x1="0" y1="0" 
					x2="0" y2="0" 
					class="edge" marker-end="url(#arrowhead)"/><line x1="0" y1="0" 
					x2="0" y2="0" 
					class="edge" marker-end="url(#arrowhead)"/><line x1="0" y1="0" 
					x2="0" y2="0" 
					class="edge" marker-end="url(#arrowhead)"/><line x1="0" y1="0" 
					x2="0" y2="0" 
					class="edge" marker-end="url(#arrowhead)"/><line x1="0" y1="0" 
					x2="0" y2="0" 
					class="edge" marker-end="url(#arrowhead)"/><line x1="0" y1="0" 
					x2="0" y2="0" 
					class="edge" marker-end="url(#arrowhead)"/><line x1="0" y1="0" 
					x2="0" y2="0" 
					class="edge" marker-end="url(#arrowhead)"/><line x1="0" y1="0" 
					x2="0" y2="0" 
					class="edge" marker-end="url(#arrowhead)"/><line x1="0" y1="0" 
					x2="0" y2="0" 
					class="edge" marker-end="url(#arrowhead)"/><line x1="0" y1="0" 
					x2="0" y2="0" 
					class="edge" marker-end="url(#arrowhead)"/><line x1="0" y1="0" 
					x2="0" y2="0" 
					class="edge" marker-end="url(#arrowhead)"/></svg>