<svg width="1200" height="800" xmlns="http://www.w3.org/2000/svg"><defs><style>
			.node { fill: #ffffff; stroke: #333333; stroke-width: 2; }
			.edge { stroke: #666666; stroke-width: 1; }
			.label { font-family: Arial, sans-serif; font-size: 12px; text-anchor: middle; }
		</style></defs><rect x="623.6208287809837" y="329.99419358881" 
				width="100" height="50" 
				class="node" rx="5"/><text x="673.6208287809837" y="359.99419358881" class="label">jest.config.js</text><rect x="288.3793133677818" y="119.89737017934135" 
				width="100" height="50" 
				class="node" rx="5"/><text x="338.3793133677818" y="149.89737017934135" class="label">UserService.ts</text><rect x="737.5902733804635" y="246.69923671672518" 
				width="100" height="50" 
				class="node" rx="5"/><text x="787.5902733804635" y="276.6992367167252" class="label">TestPathPatterns.ts</text><rect x="30.640803546414617" y="468.45190137023354" 
				width="100" height="50" 
				class="node" rx="5"/><text x="80.64080354641462" y="498.45190137023354" class="label">TestPathPatterns.test.ts</text><rect x="1018.9972293490696" y="538.8759934472689" 
				width="100" height="50" 
				class="node" rx="5"/><text x="1068.9972293490696" y="568.8759934472689" class="label">analysis.ts</text><rect x="232.6065679124144" y="431.5460287823538" 
				width="100" height="50" 
				class="node" rx="5"/><text x="282.6065679124144" y="461.5460287823538" class="label">namespace-analyzer.ts</text><rect x="1024.0220105977892" y="691.5380806033161" 
				width="100" height="50" 
				class="node" rx="5"/><text x="1074.0220105977892" y="721.5380806033161" class="label">ContextDocumentGenerator.ts</text><rect x="728.4548132276773" y="89.36398179876146" 
				width="100" height="50" 
				class="node" rx="5"/><text x="778.4548132276773" y="119.36398179876146" class="label">MarkdownDependencyExtractor.ts</text><rect x="963.8702279627275" y="427.40452003798634" 
				width="100" height="50" 
				class="node" rx="5"/><text x="1013.8702279627275" y="457.40452003798634" class="label">QueryBridge.ts</text><rect x="678.6890894118557" y="541.3429840630773" 
				width="100" height="50" 
				class="node" rx="5"/><text x="728.6890894118557" y="571.3429840630773" class="label">QueryEngine.ts</text><rect x="131.9643703855783" y="460.04635907368663" 
				width="100" height="50" 
				class="node" rx="5"/><text x="181.9643703855783" y="490.04635907368663" class="label">QueryResultMap.ts</text><rect x="1013.412673168187" y="87.52708057137775" 
				width="100" height="50" 
				class="node" rx="5"/><text x="1063.412673168187" y="117.52708057137775" class="label">SymbolExtractor.ts</text><rect x="215.25324463056518" y="690.7152402173979" 
				width="100" height="50" 
				class="node" rx="5"/><text x="265.2532446305652" y="720.7152402173979" class="label">TreeSitterQueryEngine.ts</text><rect x="676.3053292631653" y="467.54641153669024" 
				width="100" height="50" 
				class="node" rx="5"/><text x="726.3053292631653" y="497.54641153669024" class="label">markdown-types.ts</text><rect x="238.40916759959453" y="575.2444340463603" 
				width="100" height="50" 
				class="node" rx="5"/><text x="288.4091675995945" y="605.2444340463603" class="label">symbol-types.ts</text><rect x="752.80262827484" y="600.42678039996" 
				width="100" height="50" 
				class="node" rx="5"/><text x="802.80262827484" y="630.42678039996" class="label">types.ts</text><rect x="67.77484322774889" y="291.4857168354467" 
				width="100" height="50" 
				class="node" rx="5"/><text x="117.77484322774889" y="321.4857168354467" class="label">GraphDatabase.ts</text><rect x="178.55205608674072" y="290.2221214103795" 
				width="100" height="50" 
				class="node" rx="5"/><text x="228.55205608674072" y="320.2221214103795" class="label">GraphQueryEngine.ts</text><rect x="997.6866475258444" y="73.68874768808331" 
				width="100" height="50" 
				class="node" rx="5"/><text x="1047.6866475258444" y="103.68874768808331" class="label">GraphStorage.ts</text><rect x="504.96090693772067" y="523.0501860850551" 
				width="100" height="50" 
				class="node" rx="5"/><text x="554.9609069377207" y="553.0501860850551" class="label">CircularDependencyDetector.ts</text><rect x="403.14879188966665" y="579.0968049901368" 
				width="100" height="50" 
				class="node" rx="5"/><text x="453.14879188966665" y="609.0968049901368" class="label">NodeCentricAnalyzer.ts</text><rect x="803.5511840606583" y="623.603709745454" 
				width="100" height="50" 
				class="node" rx="5"/><text x="853.5511840606583" y="653.603709745454" class="label">NodeIdentifier.ts</text><rect x="315.9828035248932" y="387.3981553804652" 
				width="100" height="50" 
				class="node" rx="5"/><text x="365.9828035248932" y="417.3981553804652" class="label">index.ts</text><rect x="1090.4411565779583" y="583.144092058187" 
				width="100" height="50" 
				class="node" rx="5"/><text x="1140.4411565779583" y="613.144092058187" class="label">EdgeTypeWorkflows.ts</text><rect x="484.41341888994634" y="137.703145624455" 
				width="100" height="50" 
				class="node" rx="5"/><text x="534.4134188899463" y="167.703145624455" class="label">FileDependencyExample.ts</text><rect x="814.9371838912012" y="121.41923937175488" 
				width="100" height="50" 
				class="node" rx="5"/><text x="864.9371838912012" y="151.41923937175488" class="label">index.ts</text><rect x="216.91661375568538" y="570.2070577305998" 
				width="100" height="50" 
				class="node" rx="5"/><text x="266.9166137556854" y="600.2070577305998" class="label">EdgeTypeRegistry.ts</text><rect x="462.17548626005953" y="331.74090428753027" 
				width="100" height="50" 
				class="node" rx="5"/><text x="512.1754862600595" y="361.74090428753027" class="label">InferenceEngine.ts</text><rect x="887.2565411308128" y="592.430914789352" 
				width="100" height="50" 
				class="node" rx="5"/><text x="937.2565411308128" y="622.430914789352" class="label">InferenceTypes.ts</text><rect x="741.4428645746464" y="65.9735016403466" 
				width="100" height="50" 
				class="node" rx="5"/><text x="791.4428645746464" y="95.9735016403466" class="label">UnknownNodeResolver.ts</text><rect x="853.1347048407382" y="292.25725702067314" 
				width="100" height="50" 
				class="node" rx="5"/><text x="903.1347048407382" y="322.25725702067314" class="label">index.ts</text><rect x="483.5286291713737" y="470.4116215498016" 
				width="100" height="50" 
				class="node" rx="5"/><text x="533.5286291713737" y="500.4116215498016" class="label">RdfSearchEngine.ts</text><rect x="92.38540636206505" y="150.6744054132446" 
				width="100" height="50" 
				class="node" rx="5"/><text x="142.38540636206505" y="180.6744054132446" class="label">index.ts</text><rect x="1081.7438889668176" y="193.11907808918943" 
				width="100" height="50" 
				class="node" rx="5"/><text x="1131.7438889668176" y="223.11907808918943" class="label">FileDependencyAnalyzer.ts</text><rect x="98.22175447505322" y="59.50781194099146" 
				width="100" height="50" 
				class="node" rx="5"/><text x="148.22175447505322" y="89.50781194099146" class="label">EdgeTypeManager.ts</text><rect x="806.9159143225952" y="468.11837653971253" 
				width="100" height="50" 
				class="node" rx="5"/><text x="856.9159143225952" y="498.11837653971253" class="label">TypeRegistry.ts</text><rect x="76.84808194968053" y="234.71149185523313" 
				width="100" height="50" 
				class="node" rx="5"/><text x="126.84808194968053" y="264.71149185523313" class="label">index.ts</text><rect x="174.19514732211988" y="611.3636121174711" 
				width="100" height="50" 
				class="node" rx="5"/><text x="224.19514732211988" y="641.3636121174711" class="label">IdentifierGenerator.ts</text><rect x="18.797907469730333" y="256.7834697857803" 
				width="100" height="50" 
				class="node" rx="5"/><text x="68.79790746973033" y="286.7834697857803" class="label">DependencyGraphBuilder.ts</text><rect x="446.4571164161843" y="493.1276697872952" 
				width="100" height="50" 
				class="node" rx="5"/><text x="496.4571164161843" y="523.1276697872952" class="label">GraphAnalyzer.ts</text><rect x="242.7664817950531" y="562.812738456477" 
				width="100" height="50" 
				class="node" rx="5"/><text x="292.7664817950531" y="592.812738456477" class="label">PathResolver.ts</text><rect x="128.19996677521408" y="706.5476522593293" 
				width="100" height="50" 
				class="node" rx="5"/><text x="178.19996677521408" y="736.5476522593293" class="label">api.ts</text><rect x="437.1344512788641" y="549.640023244339" 
				width="100" height="50" 
				class="node" rx="5"/><text x="487.1344512788641" y="579.640023244339" class="label">index.ts</text><rect x="946.9705135706927" y="574.3009291410407" 
				width="100" height="50" 
				class="node" rx="5"/><text x="996.9705135706927" y="604.3009291410407" class="label">types.ts</text><rect x="177.78493951547065" y="521.9260371082576" 
				width="100" height="50" 
				class="node" rx="5"/><text x="227.78493951547065" y="551.9260371082576" class="label">index.ts</text><rect x="642.8353476241721" y="46.50576225925195" 
				width="100" height="50" 
				class="node" rx="5"/><text x="692.8353476241721" y="76.50576225925195" class="label">DependencyToGraph.ts</text><rect x="21.648627536168476" y="427.62533414206706" 
				width="100" height="50" 
				class="node" rx="5"/><text x="71.64862753616848" y="457.62533414206706" class="label">MarkdownToGraph.ts</text><rect x="30.32865810537308" y="634.107173076792" 
				width="100" height="50" 
				class="node" rx="5"/><text x="80.32865810537308" y="664.107173076792" class="label">SingleFileAnalysis.ts</text><rect x="292.2690126855768" y="498.4628740293763" 
				width="100" height="50" 
				class="node" rx="5"/><text x="342.2690126855768" y="528.4628740293763" class="label">index.ts</text><rect x="589.3353119609704" y="304.6225763772286" 
				width="100" height="50" 
				class="node" rx="5"/><text x="639.3353119609704" y="334.6225763772286" class="label">CustomKeyMapper.ts</text><rect x="475.6536910410475" y="246.05882657408614" 
				width="100" height="50" 
				class="node" rx="5"/><text x="525.6536910410475" y="276.05882657408614" class="label">ConfigManager.ts</text><rect x="495.594505294608" y="487.5672077060444" 
				width="100" height="50" 
				class="node" rx="5"/><text x="545.594505294608" y="517.5672077060444" class="label">FilePatternMatcher.ts</text><rect x="400.454185175351" y="25.61124176364966" 
				width="100" height="50" 
				class="node" rx="5"/><text x="450.454185175351" y="55.61124176364966" class="label">NamespaceDependencyAnalyzer.ts</text><rect x="698.7340567376432" y="228.81056485898557" 
				width="100" height="50" 
				class="node" rx="5"/><text x="748.7340567376432" y="258.8105648589856" class="label">NamespaceGraphDB.ts</text><rect x="697.0497272870153" y="529.0292526723313" 
				width="100" height="50" 
				class="node" rx="5"/><text x="747.0497272870153" y="559.0292526723313" class="label">index.ts</text><rect x="173.52267683587291" y="482.5055660584134" 
				width="100" height="50" 
				class="node" rx="5"/><text x="223.52267683587291" y="512.5055660584135" class="label">types.ts</text><rect x="296.4495987591815" y="521.9605845650306" 
				width="100" height="50" 
				class="node" rx="5"/><text x="346.4495987591815" y="551.9605845650306" class="label">ParserFactory.ts</text><rect x="489.07159000187016" y="199.20767410549237" 
				width="100" height="50" 
				class="node" rx="5"/><text x="539.0715900018702" y="229.20767410549237" class="label">ParserManager.ts</text><rect x="790.6611870224846" y="684.3444853137192" 
				width="100" height="50" 
				class="node" rx="5"/><text x="840.6611870224846" y="714.3444853137192" class="label">base.ts</text><rect x="1020.6634172864779" y="162.92924023939784" 
				width="100" height="50" 
				class="node" rx="5"/><text x="1070.6634172864779" y="192.92924023939784" class="label">GoParser.ts</text><rect x="933.6925302504312" y="419.8874994745759" 
				width="100" height="50" 
				class="node" rx="5"/><text x="983.6925302504312" y="449.8874994745759" class="label">index.ts</text><rect x="646.7942787421018" y="463.51629999698685" 
				width="100" height="50" 
				class="node" rx="5"/><text x="696.7942787421018" y="493.51629999698685" class="label">index.ts</text><rect x="650.1869799667472" y="89.89368551079127" 
				width="100" height="50" 
				class="node" rx="5"/><text x="700.1869799667472" y="119.89368551079127" class="label">JavaParser.ts</text><rect x="33.685455455309324" y="352.2410850161292" 
				width="100" height="50" 
				class="node" rx="5"/><text x="83.68545545530932" y="382.2410850161292" class="label">index.ts</text><rect x="789.3735955412413" y="528.5689745731794" 
				width="100" height="50" 
				class="node" rx="5"/><text x="839.3735955412413" y="558.5689745731794" class="label">PythonParser.ts</text><rect x="276.2599400374839" y="577.5175020628077" 
				width="100" height="50" 
				class="node" rx="5"/><text x="326.2599400374839" y="607.5175020628077" class="label">index.ts</text><rect x="703.8722847300027" y="145.36893260526347" 
				width="100" height="50" 
				class="node" rx="5"/><text x="753.8722847300027" y="175.36893260526347" class="label">TypeScriptParser.ts</text><rect x="754.6583580137535" y="55.83477905977281" 
				width="100" height="50" 
				class="node" rx="5"/><text x="804.6583580137535" y="85.83477905977281" class="label">index.ts</text><rect x="1021.1878913641999" y="649.8325594222773" 
				width="100" height="50" 
				class="node" rx="5"/><text x="1071.1878913642" y="679.8325594222773" class="label">exports.ts</text><rect x="162.61093534531605" y="582.1676288820714" 
				width="100" height="50" 
				class="node" rx="5"/><text x="212.61093534531605" y="612.1676288820714" class="label">imports.ts</text><rect x="454.68295615719194" y="138.76082677049175" 
				width="100" height="50" 
				class="node" rx="5"/><text x="504.68295615719194" y="168.76082677049175" class="label">index.ts</text><rect x="956.2712648217764" y="381.57487167535203" 
				width="100" height="50" 
				class="node" rx="5"/><text x="1006.2712648217764" y="411.57487167535203" class="label">tree-sitter-queries.ts</text><rect x="11.433292033799631" y="214.4989776703142" 
				width="100" height="50" 
				class="node" rx="5"/><text x="61.43329203379963" y="244.4989776703142" class="label">exports.ts</text><rect x="47.52779370827304" y="319.3603043088553" 
				width="100" height="50" 
				class="node" rx="5"/><text x="97.52779370827304" y="349.3603043088553" class="label">imports.ts</text><rect x="105.07168999831612" y="467.1830863095" 
				width="100" height="50" 
				class="node" rx="5"/><text x="155.07168999831612" y="497.1830863095" class="label">index.ts</text><rect x="950.3117601453883" y="99.26399989116483" 
				width="100" height="50" 
				class="node" rx="5"/><text x="1000.3117601453883" y="129.26399989116481" class="label">tree-sitter-queries.ts</text><rect x="1049.4022507410884" y="219.5063424027381" 
				width="100" height="50" 
				class="node" rx="5"/><text x="1099.4022507410884" y="249.5063424027381" class="label">exports.ts</text><rect x="743.9302003222524" y="309.8660416551686" 
				width="100" height="50" 
				class="node" rx="5"/><text x="793.9302003222524" y="339.8660416551686" class="label">imports.ts</text><rect x="901.8674957635943" y="715.4886233184769" 
				width="100" height="50" 
				class="node" rx="5"/><text x="951.8674957635943" y="745.4886233184769" class="label">index.ts</text><rect x="965.5958276498329" y="28.169391098486486" 
				width="100" height="50" 
				class="node" rx="5"/><text x="1015.5958276498329" y="58.169391098486486" class="label">tree-sitter-queries.ts</text><rect x="663.0230345995496" y="39.87806227956172" 
				width="100" height="50" 
				class="node" rx="5"/><text x="713.0230345995496" y="69.87806227956172" class="label">base.ts</text><rect x="85.12758083766562" y="107.96543650090757" 
				width="100" height="50" 
				class="node" rx="5"/><text x="135.12758083766562" y="137.96543650090757" class="label">classes.ts</text><rect x="983.7383631401342" y="238.33112644293112" 
				width="100" height="50" 
				class="node" rx="5"/><text x="1033.7383631401342" y="268.3311264429311" class="label">exports.ts</text><rect x="299.7683915925523" y="399.6716687142948" 
				width="100" height="50" 
				class="node" rx="5"/><text x="349.7683915925523" y="429.6716687142948" class="label">functions.ts</text><rect x="704.2696449170057" y="413.5300577951032" 
				width="100" height="50" 
				class="node" rx="5"/><text x="754.2696449170057" y="443.5300577951032" class="label">imports.ts</text><rect x="520.6668692389262" y="411.48627218651933" 
				width="100" height="50" 
				class="node" rx="5"/><text x="570.6668692389262" y="441.48627218651933" class="label">index.ts</text><rect x="255.7271115325209" y="688.8266308452014" 
				width="100" height="50" 
				class="node" rx="5"/><text x="305.7271115325209" y="718.8266308452014" class="label">java.ts</text><rect x="187.07664901895177" y="426.5414245938786" 
				width="100" height="50" 
				class="node" rx="5"/><text x="237.07664901895177" y="456.5414245938786" class="label">python.ts</text><rect x="321.3028605771899" y="271.13376328563766" 
				width="100" height="50" 
				class="node" rx="5"/><text x="371.3028605771899" y="301.13376328563766" class="label">BaseScenarioAnalyzer.ts</text><rect x="415.90564030619447" y="28.688021047919918" 
				width="100" height="50" 
				class="node" rx="5"/><text x="465.90564030619447" y="58.68802104791992" class="label">ScenarioRegistry.ts</text><rect x="348.74962680055603" y="406.0584425082785" 
				width="100" height="50" 
				class="node" rx="5"/><text x="398.74962680055603" y="436.0584425082785" class="label">MethodAnalyzer.ts</text><rect x="581.3919664168075" y="677.6510262443112" 
				width="100" height="50" 
				class="node" rx="5"/><text x="631.3919664168075" y="707.6510262443112" class="label">basic-structure.ts</text><rect x="717.1928393358014" y="387.8565025848406" 
				width="100" height="50" 
				class="node" rx="5"/><text x="767.1928393358014" y="417.8565025848406" class="label">file-dependency.ts</text><rect x="819.7544780922912" y="343.9757038345681" 
				width="100" height="50" 
				class="node" rx="5"/><text x="869.7544780922912" y="373.9757038345681" class="label">index.ts</text><rect x="775.9526425057195" y="95.0943821555828" 
				width="100" height="50" 
				class="node" rx="5"/><text x="825.9526425057195" y="125.0943821555828" class="label">markdown-linking.ts</text><rect x="117.00378444833314" y="161.43621692548433" 
				width="100" height="50" 
				class="node" rx="5"/><text x="167.00378444833314" y="191.43621692548433" class="label">method-analysis.ts</text><rect x="383.07955244899705" y="381.7089249841699" 
				width="100" height="50" 
				class="node" rx="5"/><text x="433.07955244899705" y="411.7089249841699" class="label">symbol-dependency.ts</text><rect x="655.6437839510369" y="134.31093300026566" 
				width="100" height="50" 
				class="node" rx="5"/><text x="705.6437839510369" y="164.31093300026566" class="label">index.ts</text><rect x="500.09194284858927" y="497.1415636320048" 
				width="100" height="50" 
				class="node" rx="5"/><text x="550.0919428485893" y="527.1415636320048" class="label">types.ts</text><rect x="452.29575191538754" y="439.0238554031183" 
				width="100" height="50" 
				class="node" rx="5"/><text x="502.29575191538754" y="469.0238554031183" class="label">validation.ts</text><rect x="235.4749635733179" y="321.2173775614808" 
				width="100" height="50" 
				class="node" rx="5"/><text x="285.4749635733179" y="351.2173775614808" class="label">ast-helpers.ts</text><rect x="800.4963357551635" y="612.9455331627968" 
				width="100" height="50" 
				class="node" rx="5"/><text x="850.4963357551635" y="642.9455331627968" class="label">index.ts</text><rect x="196.19116530284083" y="653.615949815265" 
				width="100" height="50" 
				class="node" rx="5"/><text x="246.19116530284083" y="683.615949815265" class="label">validation.ts</text><rect x="718.882534144148" y="426.28687260984714" 
				width="100" height="50" 
				class="node" rx="5"/><text x="768.882534144148" y="456.28687260984714" class="label">core-functionality.test.ts</text><rect x="753.5567957487609" y="574.2998684951865" 
				width="100" height="50" 
				class="node" rx="5"/><text x="803.5567957487609" y="604.2998684951865" class="label">circular-dependency.test.ts</text><rect x="406.7495757685576" y="387.4406279730477" 
				width="100" height="50" 
				class="node" rx="5"/><text x="456.7495757685576" y="417.4406279730477" class="label">graph-analysis.test.ts</text><rect x="715.6179232289699" y="660.0433889571638" 
				width="100" height="50" 
				class="node" rx="5"/><text x="765.6179232289699" y="690.0433889571638" class="label">inference-engine.test.ts</text><rect x="218.3912795232248" y="678.0334881383704" 
				width="100" height="50" 
				class="node" rx="5"/><text x="268.3912795232248" y="708.0334881383704" class="label">rdf-addressing.test.ts</text><rect x="501.9030958842036" y="410.46694071245895" 
				width="100" height="50" 
				class="node" rx="5"/><text x="551.9030958842036" y="440.46694071245895" class="label">graph-analysis.test.ts</text><rect x="426.745804277852" y="427.0197559506635" 
				width="100" height="50" 
				class="node" rx="5"/><text x="476.745804277852" y="457.0197559506635" class="label">markdown-dependency-tracking.test.ts</text><rect x="1049.721529201494" y="45.83687362279221" 
				width="100" height="50" 
				class="node" rx="5"/><text x="1099.721529201494" y="75.83687362279221" class="label">namespace-config.test.ts</text><rect x="632.5196404895086" y="278.6949572616316" 
				width="100" height="50" 
				class="node" rx="5"/><text x="682.5196404895086" y="308.6949572616316" class="label">namespace-scenario-integration.test.ts</text><rect x="227.20683560793452" y="89.4313394096951" 
				width="100" height="50" 
				class="node" rx="5"/><text x="277.2068356079345" y="119.4313394096951" class="label">scenarios-analyzer.test.ts</text><rect x="1030.9001182525355" y="655.7994108429734" 
				width="100" height="50" 
				class="node" rx="5"/><text x="1080.9001182525355" y="685.7994108429734" class="label">scenarios-builtin.test.ts</text><rect x="320.27588980664245" y="267.8485953411563" 
				width="100" height="50" 
				class="node" rx="5"/><text x="370.27588980664245" y="297.8485953411563" class="label">scenarios-registry.test.ts</text><rect x="62.704911682496686" y="170.5908145905506" 
				width="100" height="50" 
				class="node" rx="5"/><text x="112.70491168249669" y="200.5908145905506" class="label">scenarios-types.test.ts</text><rect x="391.36067815873236" y="288.89506340995274" 
				width="100" height="50" 
				class="node" rx="5"/><text x="441.36067815873236" y="318.89506340995274" class="label">setup.ts</text><rect x="975.4945910627966" y="530.0210907338346" 
				width="100" height="50" 
				class="node" rx="5"/><text x="1025.4945910627966" y="560.0210907338346" class="label">test-helpers.ts</text><line x1="0" y1="0" 
					x2="0" y2="0" 
					class="edge" marker-end="url(#arrowhead)"/><line x1="0" y1="0" 
					x2="0" y2="0" 
					class="edge" marker-end="url(#arrowhead)"/><line x1="0" y1="0" 
					x2="0" y2="0" 
					class="edge" marker-end="url(#arrowhead)"/><line x1="0" y1="0" 
					x2="0" y2="0" 
					class="edge" marker-end="url(#arrowhead)"/><line x1="0" y1="0" 
					x2="0" y2="0" 
					class="edge" marker-end="url(#arrowhead)"/><line x1="0" y1="0" 
					x2="0" y2="0" 
					class="edge" marker-end="url(#arrowhead)"/><line x1="0" y1="0" 
					x2="0" y2="0" 
					class="edge" marker-end="url(#arrowhead)"/><line x1="0" y1="0" 
					x2="0" y2="0" 
					class="edge" marker-end="url(#arrowhead)"/><line x1="0" y1="0" 
					x2="0" y2="0" 
					class="edge" marker-end="url(#arrowhead)"/><line x1="0" y1="0" 
					x2="0" y2="0" 
					class="edge" marker-end="url(#arrowhead)"/><line x1="0" y1="0" 
					x2="0" y2="0" 
					class="edge" marker-end="url(#arrowhead)"/><line x1="0" y1="0" 
					x2="0" y2="0" 
					class="edge" marker-end="url(#arrowhead)"/><line x1="0" y1="0" 
					x2="0" y2="0" 
					class="edge" marker-end="url(#arrowhead)"/><line x1="0" y1="0" 
					x2="0" y2="0" 
					class="edge" marker-end="url(#arrowhead)"/><line x1="0" y1="0" 
					x2="0" y2="0" 
					class="edge" marker-end="url(#arrowhead)"/><line x1="0" y1="0" 
					x2="0" y2="0" 
					class="edge" marker-end="url(#arrowhead)"/><line x1="0" y1="0" 
					x2="0" y2="0" 
					class="edge" marker-end="url(#arrowhead)"/><line x1="0" y1="0" 
					x2="0" y2="0" 
					class="edge" marker-end="url(#arrowhead)"/><line x1="0" y1="0" 
					x2="0" y2="0" 
					class="edge" marker-end="url(#arrowhead)"/><line x1="0" y1="0" 
					x2="0" y2="0" 
					class="edge" marker-end="url(#arrowhead)"/><line x1="0" y1="0" 
					x2="0" y2="0" 
					class="edge" marker-end="url(#arrowhead)"/><line x1="0" y1="0" 
					x2="0" y2="0" 
					class="edge" marker-end="url(#arrowhead)"/><line x1="0" y1="0" 
					x2="0" y2="0" 
					class="edge" marker-end="url(#arrowhead)"/><line x1="0" y1="0" 
					x2="0" y2="0" 
					class="edge" marker-end="url(#arrowhead)"/><line x1="0" y1="0" 
					x2="0" y2="0" 
					class="edge" marker-end="url(#arrowhead)"/><line x1="0" y1="0" 
					x2="0" y2="0" 
					class="edge" marker-end="url(#arrowhead)"/><line x1="0" y1="0" 
					x2="0" y2="0" 
					class="edge" marker-end="url(#arrowhead)"/><line x1="0" y1="0" 
					x2="0" y2="0" 
					class="edge" marker-end="url(#arrowhead)"/><line x1="0" y1="0" 
					x2="0" y2="0" 
					class="edge" marker-end="url(#arrowhead)"/><line x1="0" y1="0" 
					x2="0" y2="0" 
					class="edge" marker-end="url(#arrowhead)"/><line x1="0" y1="0" 
					x2="0" y2="0" 
					class="edge" marker-end="url(#arrowhead)"/><line x1="0" y1="0" 
					x2="0" y2="0" 
					class="edge" marker-end="url(#arrowhead)"/><line x1="0" y1="0" 
					x2="0" y2="0" 
					class="edge" marker-end="url(#arrowhead)"/><line x1="0" y1="0" 
					x2="0" y2="0" 
					class="edge" marker-end="url(#arrowhead)"/><line x1="0" y1="0" 
					x2="0" y2="0" 
					class="edge" marker-end="url(#arrowhead)"/><line x1="0" y1="0" 
					x2="0" y2="0" 
					class="edge" marker-end="url(#arrowhead)"/><line x1="0" y1="0" 
					x2="0" y2="0" 
					class="edge" marker-end="url(#arrowhead)"/><line x1="0" y1="0" 
					x2="0" y2="0" 
					class="edge" marker-end="url(#arrowhead)"/><line x1="0" y1="0" 
					x2="0" y2="0" 
					class="edge" marker-end="url(#arrowhead)"/><line x1="0" y1="0" 
					x2="0" y2="0" 
					class="edge" marker-end="url(#arrowhead)"/><line x1="0" y1="0" 
					x2="0" y2="0" 
					class="edge" marker-end="url(#arrowhead)"/><line x1="0" y1="0" 
					x2="0" y2="0" 
					class="edge" marker-end="url(#arrowhead)"/><line x1="0" y1="0" 
					x2="0" y2="0" 
					class="edge" marker-end="url(#arrowhead)"/><line x1="0" y1="0" 
					x2="0" y2="0" 
					class="edge" marker-end="url(#arrowhead)"/><line x1="0" y1="0" 
					x2="0" y2="0" 
					class="edge" marker-end="url(#arrowhead)"/><line x1="0" y1="0" 
					x2="0" y2="0" 
					class="edge" marker-end="url(#arrowhead)"/><line x1="0" y1="0" 
					x2="0" y2="0" 
					class="edge" marker-end="url(#arrowhead)"/><line x1="0" y1="0" 
					x2="0" y2="0" 
					class="edge" marker-end="url(#arrowhead)"/><line x1="0" y1="0" 
					x2="0" y2="0" 
					class="edge" marker-end="url(#arrowhead)"/><line x1="0" y1="0" 
					x2="0" y2="0" 
					class="edge" marker-end="url(#arrowhead)"/><line x1="0" y1="0" 
					x2="0" y2="0" 
					class="edge" marker-end="url(#arrowhead)"/><line x1="0" y1="0" 
					x2="0" y2="0" 
					class="edge" marker-end="url(#arrowhead)"/><line x1="0" y1="0" 
					x2="0" y2="0" 
					class="edge" marker-end="url(#arrowhead)"/><line x1="0" y1="0" 
					x2="0" y2="0" 
					class="edge" marker-end="url(#arrowhead)"/><line x1="0" y1="0" 
					x2="0" y2="0" 
					class="edge" marker-end="url(#arrowhead)"/><line x1="0" y1="0" 
					x2="0" y2="0" 
					class="edge" marker-end="url(#arrowhead)"/><line x1="0" y1="0" 
					x2="0" y2="0" 
					class="edge" marker-end="url(#arrowhead)"/><line x1="0" y1="0" 
					x2="0" y2="0" 
					class="edge" marker-end="url(#arrowhead)"/><line x1="0" y1="0" 
					x2="0" y2="0" 
					class="edge" marker-end="url(#arrowhead)"/><line x1="0" y1="0" 
					x2="0" y2="0" 
					class="edge" marker-end="url(#arrowhead)"/><line x1="0" y1="0" 
					x2="0" y2="0" 
					class="edge" marker-end="url(#arrowhead)"/><line x1="0" y1="0" 
					x2="0" y2="0" 
					class="edge" marker-end="url(#arrowhead)"/><line x1="0" y1="0" 
					x2="0" y2="0" 
					class="edge" marker-end="url(#arrowhead)"/><line x1="0" y1="0" 
					x2="0" y2="0" 
					class="edge" marker-end="url(#arrowhead)"/><line x1="0" y1="0" 
					x2="0" y2="0" 
					class="edge" marker-end="url(#arrowhead)"/><line x1="0" y1="0" 
					x2="0" y2="0" 
					class="edge" marker-end="url(#arrowhead)"/><line x1="0" y1="0" 
					x2="0" y2="0" 
					class="edge" marker-end="url(#arrowhead)"/><line x1="0" y1="0" 
					x2="0" y2="0" 
					class="edge" marker-end="url(#arrowhead)"/><line x1="0" y1="0" 
					x2="0" y2="0" 
					class="edge" marker-end="url(#arrowhead)"/><line x1="0" y1="0" 
					x2="0" y2="0" 
					class="edge" marker-end="url(#arrowhead)"/><line x1="0" y1="0" 
					x2="0" y2="0" 
					class="edge" marker-end="url(#arrowhead)"/><line x1="0" y1="0" 
					x2="0" y2="0" 
					class="edge" marker-end="url(#arrowhead)"/><line x1="0" y1="0" 
					x2="0" y2="0" 
					class="edge" marker-end="url(#arrowhead)"/><line x1="0" y1="0" 
					x2="0" y2="0" 
					class="edge" marker-end="url(#arrowhead)"/><line x1="0" y1="0" 
					x2="0" y2="0" 
					class="edge" marker-end="url(#arrowhead)"/><line x1="0" y1="0" 
					x2="0" y2="0" 
					class="edge" marker-end="url(#arrowhead)"/><line x1="0" y1="0" 
					x2="0" y2="0" 
					class="edge" marker-end="url(#arrowhead)"/><line x1="0" y1="0" 
					x2="0" y2="0" 
					class="edge" marker-end="url(#arrowhead)"/><line x1="0" y1="0" 
					x2="0" y2="0" 
					class="edge" marker-end="url(#arrowhead)"/><line x1="0" y1="0" 
					x2="0" y2="0" 
					class="edge" marker-end="url(#arrowhead)"/><line x1="0" y1="0" 
					x2="0" y2="0" 
					class="edge" marker-end="url(#arrowhead)"/><line x1="0" y1="0" 
					x2="0" y2="0" 
					class="edge" marker-end="url(#arrowhead)"/><line x1="0" y1="0" 
					x2="0" y2="0" 
					class="edge" marker-end="url(#arrowhead)"/><line x1="0" y1="0" 
					x2="0" y2="0" 
					class="edge" marker-end="url(#arrowhead)"/><line x1="0" y1="0" 
					x2="0" y2="0" 
					class="edge" marker-end="url(#arrowhead)"/><line x1="0" y1="0" 
					x2="0" y2="0" 
					class="edge" marker-end="url(#arrowhead)"/><line x1="0" y1="0" 
					x2="0" y2="0" 
					class="edge" marker-end="url(#arrowhead)"/><line x1="0" y1="0" 
					x2="0" y2="0" 
					class="edge" marker-end="url(#arrowhead)"/><line x1="0" y1="0" 
					x2="0" y2="0" 
					class="edge" marker-end="url(#arrowhead)"/><line x1="0" y1="0" 
					x2="0" y2="0" 
					class="edge" marker-end="url(#arrowhead)"/><line x1="0" y1="0" 
					x2="0" y2="0" 
					class="edge" marker-end="url(#arrowhead)"/><line x1="0" y1="0" 
					x2="0" y2="0" 
					class="edge" marker-end="url(#arrowhead)"/><line x1="0" y1="0" 
					x2="0" y2="0" 
					class="edge" marker-end="url(#arrowhead)"/><line x1="0" y1="0" 
					x2="0" y2="0" 
					class="edge" marker-end="url(#arrowhead)"/><line x1="0" y1="0" 
					x2="0" y2="0" 
					class="edge" marker-end="url(#arrowhead)"/><line x1="0" y1="0" 
					x2="0" y2="0" 
					class="edge" marker-end="url(#arrowhead)"/><line x1="0" y1="0" 
					x2="0" y2="0" 
					class="edge" marker-end="url(#arrowhead)"/><line x1="0" y1="0" 
					x2="0" y2="0" 
					class="edge" marker-end="url(#arrowhead)"/><line x1="0" y1="0" 
					x2="0" y2="0" 
					class="edge" marker-end="url(#arrowhead)"/><line x1="0" y1="0" 
					x2="0" y2="0" 
					class="edge" marker-end="url(#arrowhead)"/><line x1="0" y1="0" 
					x2="0" y2="0" 
					class="edge" marker-end="url(#arrowhead)"/><line x1="0" y1="0" 
					x2="0" y2="0" 
					class="edge" marker-end="url(#arrowhead)"/><line x1="0" y1="0" 
					x2="0" y2="0" 
					class="edge" marker-end="url(#arrowhead)"/><line x1="0" y1="0" 
					x2="0" y2="0" 
					class="edge" marker-end="url(#arrowhead)"/><line x1="0" y1="0" 
					x2="0" y2="0" 
					class="edge" marker-end="url(#arrowhead)"/><line x1="0" y1="0" 
					x2="0" y2="0" 
					class="edge" marker-end="url(#arrowhead)"/><line x1="0" y1="0" 
					x2="0" y2="0" 
					class="edge" marker-end="url(#arrowhead)"/><line x1="0" y1="0" 
					x2="0" y2="0" 
					class="edge" marker-end="url(#arrowhead)"/><line x1="0" y1="0" 
					x2="0" y2="0" 
					class="edge" marker-end="url(#arrowhead)"/><line x1="0" y1="0" 
					x2="0" y2="0" 
					class="edge" marker-end="url(#arrowhead)"/><line x1="0" y1="0" 
					x2="0" y2="0" 
					class="edge" marker-end="url(#arrowhead)"/><line x1="0" y1="0" 
					x2="0" y2="0" 
					class="edge" marker-end="url(#arrowhead)"/><line x1="0" y1="0" 
					x2="0" y2="0" 
					class="edge" marker-end="url(#arrowhead)"/><line x1="0" y1="0" 
					x2="0" y2="0" 
					class="edge" marker-end="url(#arrowhead)"/><line x1="0" y1="0" 
					x2="0" y2="0" 
					class="edge" marker-end="url(#arrowhead)"/><line x1="0" y1="0" 
					x2="0" y2="0" 
					class="edge" marker-end="url(#arrowhead)"/><line x1="0" y1="0" 
					x2="0" y2="0" 
					class="edge" marker-end="url(#arrowhead)"/><line x1="0" y1="0" 
					x2="0" y2="0" 
					class="edge" marker-end="url(#arrowhead)"/><line x1="0" y1="0" 
					x2="0" y2="0" 
					class="edge" marker-end="url(#arrowhead)"/><line x1="0" y1="0" 
					x2="0" y2="0" 
					class="edge" marker-end="url(#arrowhead)"/><line x1="0" y1="0" 
					x2="0" y2="0" 
					class="edge" marker-end="url(#arrowhead)"/><line x1="0" y1="0" 
					x2="0" y2="0" 
					class="edge" marker-end="url(#arrowhead)"/><line x1="0" y1="0" 
					x2="0" y2="0" 
					class="edge" marker-end="url(#arrowhead)"/><line x1="0" y1="0" 
					x2="0" y2="0" 
					class="edge" marker-end="url(#arrowhead)"/><line x1="0" y1="0" 
					x2="0" y2="0" 
					class="edge" marker-end="url(#arrowhead)"/><line x1="0" y1="0" 
					x2="0" y2="0" 
					class="edge" marker-end="url(#arrowhead)"/><line x1="0" y1="0" 
					x2="0" y2="0" 
					class="edge" marker-end="url(#arrowhead)"/><line x1="0" y1="0" 
					x2="0" y2="0" 
					class="edge" marker-end="url(#arrowhead)"/><line x1="0" y1="0" 
					x2="0" y2="0" 
					class="edge" marker-end="url(#arrowhead)"/><line x1="0" y1="0" 
					x2="0" y2="0" 
					class="edge" marker-end="url(#arrowhead)"/><line x1="0" y1="0" 
					x2="0" y2="0" 
					class="edge" marker-end="url(#arrowhead)"/><line x1="0" y1="0" 
					x2="0" y2="0" 
					class="edge" marker-end="url(#arrowhead)"/><line x1="0" y1="0" 
					x2="0" y2="0" 
					class="edge" marker-end="url(#arrowhead)"/><line x1="0" y1="0" 
					x2="0" y2="0" 
					class="edge" marker-end="url(#arrowhead)"/><line x1="0" y1="0" 
					x2="0" y2="0" 
					class="edge" marker-end="url(#arrowhead)"/><line x1="0" y1="0" 
					x2="0" y2="0" 
					class="edge" marker-end="url(#arrowhead)"/><line x1="0" y1="0" 
					x2="0" y2="0" 
					class="edge" marker-end="url(#arrowhead)"/><line x1="0" y1="0" 
					x2="0" y2="0" 
					class="edge" marker-end="url(#arrowhead)"/><line x1="0" y1="0" 
					x2="0" y2="0" 
					class="edge" marker-end="url(#arrowhead)"/><line x1="0" y1="0" 
					x2="0" y2="0" 
					class="edge" marker-end="url(#arrowhead)"/><line x1="0" y1="0" 
					x2="0" y2="0" 
					class="edge" marker-end="url(#arrowhead)"/><line x1="0" y1="0" 
					x2="0" y2="0" 
					class="edge" marker-end="url(#arrowhead)"/><line x1="0" y1="0" 
					x2="0" y2="0" 
					class="edge" marker-end="url(#arrowhead)"/><line x1="0" y1="0" 
					x2="0" y2="0" 
					class="edge" marker-end="url(#arrowhead)"/><line x1="0" y1="0" 
					x2="0" y2="0" 
					class="edge" marker-end="url(#arrowhead)"/><line x1="0" y1="0" 
					x2="0" y2="0" 
					class="edge" marker-end="url(#arrowhead)"/><line x1="0" y1="0" 
					x2="0" y2="0" 
					class="edge" marker-end="url(#arrowhead)"/><line x1="0" y1="0" 
					x2="0" y2="0" 
					class="edge" marker-end="url(#arrowhead)"/><line x1="0" y1="0" 
					x2="0" y2="0" 
					class="edge" marker-end="url(#arrowhead)"/><line x1="0" y1="0" 
					x2="0" y2="0" 
					class="edge" marker-end="url(#arrowhead)"/><line x1="0" y1="0" 
					x2="0" y2="0" 
					class="edge" marker-end="url(#arrowhead)"/><line x1="0" y1="0" 
					x2="0" y2="0" 
					class="edge" marker-end="url(#arrowhead)"/><line x1="0" y1="0" 
					x2="0" y2="0" 
					class="edge" marker-end="url(#arrowhead)"/><line x1="0" y1="0" 
					x2="0" y2="0" 
					class="edge" marker-end="url(#arrowhead)"/><line x1="0" y1="0" 
					x2="0" y2="0" 
					class="edge" marker-end="url(#arrowhead)"/><line x1="0" y1="0" 
					x2="0" y2="0" 
					class="edge" marker-end="url(#arrowhead)"/><line x1="0" y1="0" 
					x2="0" y2="0" 
					class="edge" marker-end="url(#arrowhead)"/><line x1="0" y1="0" 
					x2="0" y2="0" 
					class="edge" marker-end="url(#arrowhead)"/><line x1="0" y1="0" 
					x2="0" y2="0" 
					class="edge" marker-end="url(#arrowhead)"/><line x1="0" y1="0" 
					x2="0" y2="0" 
					class="edge" marker-end="url(#arrowhead)"/><line x1="0" y1="0" 
					x2="0" y2="0" 
					class="edge" marker-end="url(#arrowhead)"/><line x1="0" y1="0" 
					x2="0" y2="0" 
					class="edge" marker-end="url(#arrowhead)"/><line x1="0" y1="0" 
					x2="0" y2="0" 
					class="edge" marker-end="url(#arrowhead)"/><line x1="0" y1="0" 
					x2="0" y2="0" 
					class="edge" marker-end="url(#arrowhead)"/><line x1="0" y1="0" 
					x2="0" y2="0" 
					class="edge" marker-end="url(#arrowhead)"/><line x1="0" y1="0" 
					x2="0" y2="0" 
					class="edge" marker-end="url(#arrowhead)"/><line x1="0" y1="0" 
					x2="0" y2="0" 
					class="edge" marker-end="url(#arrowhead)"/><line x1="0" y1="0" 
					x2="0" y2="0" 
					class="edge" marker-end="url(#arrowhead)"/><line x1="0" y1="0" 
					x2="0" y2="0" 
					class="edge" marker-end="url(#arrowhead)"/><line x1="0" y1="0" 
					x2="0" y2="0" 
					class="edge" marker-end="url(#arrowhead)"/><line x1="0" y1="0" 
					x2="0" y2="0" 
					class="edge" marker-end="url(#arrowhead)"/><line x1="0" y1="0" 
					x2="0" y2="0" 
					class="edge" marker-end="url(#arrowhead)"/><line x1="0" y1="0" 
					x2="0" y2="0" 
					class="edge" marker-end="url(#arrowhead)"/><line x1="0" y1="0" 
					x2="0" y2="0" 
					class="edge" marker-end="url(#arrowhead)"/><line x1="0" y1="0" 
					x2="0" y2="0" 
					class="edge" marker-end="url(#arrowhead)"/><line x1="0" y1="0" 
					x2="0" y2="0" 
					class="edge" marker-end="url(#arrowhead)"/><line x1="0" y1="0" 
					x2="0" y2="0" 
					class="edge" marker-end="url(#arrowhead)"/><line x1="0" y1="0" 
					x2="0" y2="0" 
					class="edge" marker-end="url(#arrowhead)"/><line x1="0" y1="0" 
					x2="0" y2="0" 
					class="edge" marker-end="url(#arrowhead)"/><line x1="0" y1="0" 
					x2="0" y2="0" 
					class="edge" marker-end="url(#arrowhead)"/><line x1="0" y1="0" 
					x2="0" y2="0" 
					class="edge" marker-end="url(#arrowhead)"/><line x1="0" y1="0" 
					x2="0" y2="0" 
					class="edge" marker-end="url(#arrowhead)"/><line x1="0" y1="0" 
					x2="0" y2="0" 
					class="edge" marker-end="url(#arrowhead)"/><line x1="0" y1="0" 
					x2="0" y2="0" 
					class="edge" marker-end="url(#arrowhead)"/><line x1="0" y1="0" 
					x2="0" y2="0" 
					class="edge" marker-end="url(#arrowhead)"/><line x1="0" y1="0" 
					x2="0" y2="0" 
					class="edge" marker-end="url(#arrowhead)"/><line x1="0" y1="0" 
					x2="0" y2="0" 
					class="edge" marker-end="url(#arrowhead)"/><line x1="0" y1="0" 
					x2="0" y2="0" 
					class="edge" marker-end="url(#arrowhead)"/><line x1="0" y1="0" 
					x2="0" y2="0" 
					class="edge" marker-end="url(#arrowhead)"/><line x1="0" y1="0" 
					x2="0" y2="0" 
					class="edge" marker-end="url(#arrowhead)"/><line x1="0" y1="0" 
					x2="0" y2="0" 
					class="edge" marker-end="url(#arrowhead)"/><line x1="0" y1="0" 
					x2="0" y2="0" 
					class="edge" marker-end="url(#arrowhead)"/><line x1="0" y1="0" 
					x2="0" y2="0" 
					class="edge" marker-end="url(#arrowhead)"/><line x1="0" y1="0" 
					x2="0" y2="0" 
					class="edge" marker-end="url(#arrowhead)"/><line x1="0" y1="0" 
					x2="0" y2="0" 
					class="edge" marker-end="url(#arrowhead)"/><line x1="0" y1="0" 
					x2="0" y2="0" 
					class="edge" marker-end="url(#arrowhead)"/><line x1="0" y1="0" 
					x2="0" y2="0" 
					class="edge" marker-end="url(#arrowhead)"/><line x1="0" y1="0" 
					x2="0" y2="0" 
					class="edge" marker-end="url(#arrowhead)"/><line x1="0" y1="0" 
					x2="0" y2="0" 
					class="edge" marker-end="url(#arrowhead)"/><line x1="0" y1="0" 
					x2="0" y2="0" 
					class="edge" marker-end="url(#arrowhead)"/><line x1="0" y1="0" 
					x2="0" y2="0" 
					class="edge" marker-end="url(#arrowhead)"/><line x1="0" y1="0" 
					x2="0" y2="0" 
					class="edge" marker-end="url(#arrowhead)"/><line x1="0" y1="0" 
					x2="0" y2="0" 
					class="edge" marker-end="url(#arrowhead)"/><line x1="0" y1="0" 
					x2="0" y2="0" 
					class="edge" marker-end="url(#arrowhead)"/><line x1="0" y1="0" 
					x2="0" y2="0" 
					class="edge" marker-end="url(#arrowhead)"/><line x1="0" y1="0" 
					x2="0" y2="0" 
					class="edge" marker-end="url(#arrowhead)"/><line x1="0" y1="0" 
					x2="0" y2="0" 
					class="edge" marker-end="url(#arrowhead)"/><line x1="0" y1="0" 
					x2="0" y2="0" 
					class="edge" marker-end="url(#arrowhead)"/><line x1="0" y1="0" 
					x2="0" y2="0" 
					class="edge" marker-end="url(#arrowhead)"/><line x1="0" y1="0" 
					x2="0" y2="0" 
					class="edge" marker-end="url(#arrowhead)"/><line x1="0" y1="0" 
					x2="0" y2="0" 
					class="edge" marker-end="url(#arrowhead)"/><line x1="0" y1="0" 
					x2="0" y2="0" 
					class="edge" marker-end="url(#arrowhead)"/><line x1="0" y1="0" 
					x2="0" y2="0" 
					class="edge" marker-end="url(#arrowhead)"/><line x1="0" y1="0" 
					x2="0" y2="0" 
					class="edge" marker-end="url(#arrowhead)"/><line x1="0" y1="0" 
					x2="0" y2="0" 
					class="edge" marker-end="url(#arrowhead)"/><line x1="0" y1="0" 
					x2="0" y2="0" 
					class="edge" marker-end="url(#arrowhead)"/><line x1="0" y1="0" 
					x2="0" y2="0" 
					class="edge" marker-end="url(#arrowhead)"/><line x1="0" y1="0" 
					x2="0" y2="0" 
					class="edge" marker-end="url(#arrowhead)"/><line x1="0" y1="0" 
					x2="0" y2="0" 
					class="edge" marker-end="url(#arrowhead)"/><line x1="0" y1="0" 
					x2="0" y2="0" 
					class="edge" marker-end="url(#arrowhead)"/><line x1="0" y1="0" 
					x2="0" y2="0" 
					class="edge" marker-end="url(#arrowhead)"/><line x1="0" y1="0" 
					x2="0" y2="0" 
					class="edge" marker-end="url(#arrowhead)"/><line x1="0" y1="0" 
					x2="0" y2="0" 
					class="edge" marker-end="url(#arrowhead)"/><line x1="0" y1="0" 
					x2="0" y2="0" 
					class="edge" marker-end="url(#arrowhead)"/><line x1="0" y1="0" 
					x2="0" y2="0" 
					class="edge" marker-end="url(#arrowhead)"/><line x1="0" y1="0" 
					x2="0" y2="0" 
					class="edge" marker-end="url(#arrowhead)"/><line x1="0" y1="0" 
					x2="0" y2="0" 
					class="edge" marker-end="url(#arrowhead)"/><line x1="0" y1="0" 
					x2="0" y2="0" 
					class="edge" marker-end="url(#arrowhead)"/><line x1="0" y1="0" 
					x2="0" y2="0" 
					class="edge" marker-end="url(#arrowhead)"/><line x1="0" y1="0" 
					x2="0" y2="0" 
					class="edge" marker-end="url(#arrowhead)"/><line x1="0" y1="0" 
					x2="0" y2="0" 
					class="edge" marker-end="url(#arrowhead)"/><line x1="0" y1="0" 
					x2="0" y2="0" 
					class="edge" marker-end="url(#arrowhead)"/></svg>